<svg xmlns="http://www.w3.org/2000/svg" width="64" height="64" viewBox="0 0 64 64">
  <title>nested circular grid</title>
  <g fill="none" stroke="#FFFFFF" stroke-linecap="butt" stroke-linejoin="miter">
    <circle cx="32" cy="32" r="26" stroke-width="1.4" />
    <circle cx="32" cy="32" r="19" stroke-width="1.25" />
    <circle cx="32" cy="32" r="12" stroke-width="1.1" />
    <circle cx="32" cy="32" r="5" stroke-width="1" />
    <line x1="35" y1="32" x2="59" y2="32" stroke-width="0.9" />
    <line x1="34.942" y1="32.585" x2="58.481" y2="37.267" stroke-width="0.9" />
    <line x1="34.772" y1="33.148" x2="56.945" y2="42.332" stroke-width="0.9" />
    <line x1="34.494" y1="33.667" x2="54.45" y2="47" stroke-width="0.9" />
    <line x1="34.121" y1="34.121" x2="51.092" y2="51.092" stroke-width="0.9" />
    <line x1="33.667" y1="34.494" x2="47" y2="54.45" stroke-width="0.9" />
    <line x1="33.148" y1="34.772" x2="42.332" y2="56.945" stroke-width="0.9" />
    <line x1="32.585" y1="34.942" x2="37.267" y2="58.481" stroke-width="0.9" />
    <line x1="32" y1="35" x2="32" y2="59" stroke-width="0.9" />
    <line x1="31.415" y1="34.942" x2="26.733" y2="58.481" stroke-width="0.9" />
    <line x1="30.852" y1="34.772" x2="21.668" y2="56.945" stroke-width="0.9" />
    <line x1="30.333" y1="34.494" x2="17" y2="54.45" stroke-width="0.9" />
    <line x1="29.879" y1="34.121" x2="12.908" y2="51.092" stroke-width="0.9" />
    <line x1="29.506" y1="33.667" x2="9.55" y2="47" stroke-width="0.9" />
    <line x1="29.228" y1="33.148" x2="7.055" y2="42.332" stroke-width="0.9" />
    <line x1="29.058" y1="32.585" x2="5.519" y2="37.267" stroke-width="0.9" />
    <line x1="29" y1="32" x2="5" y2="32" stroke-width="0.9" />
    <line x1="29.058" y1="31.415" x2="5.519" y2="26.733" stroke-width="0.9" />
    <line x1="29.228" y1="30.852" x2="7.055" y2="21.668" stroke-width="0.9" />
    <line x1="29.506" y1="30.333" x2="9.55" y2="17" stroke-width="0.9" />
    <line x1="29.879" y1="29.879" x2="12.908" y2="12.908" stroke-width="0.9" />
    <line x1="30.333" y1="29.506" x2="17" y2="9.55" stroke-width="0.9" />
    <line x1="30.852" y1="29.228" x2="21.668" y2="7.055" stroke-width="0.9" />
    <line x1="31.415" y1="29.058" x2="26.733" y2="5.519" stroke-width="0.9" />
    <line x1="32" y1="29" x2="32" y2="5" stroke-width="0.9" />
    <line x1="32.585" y1="29.058" x2="37.267" y2="5.519" stroke-width="0.9" />
    <line x1="33.148" y1="29.228" x2="42.332" y2="7.055" stroke-width="0.9" />
    <line x1="33.667" y1="29.506" x2="47" y2="9.55" stroke-width="0.9" />
    <line x1="34.121" y1="29.879" x2="51.092" y2="12.908" stroke-width="0.9" />
    <line x1="34.494" y1="30.333" x2="54.45" y2="17" stroke-width="0.9" />
    <line x1="34.772" y1="30.852" x2="56.945" y2="21.668" stroke-width="0.9" />
    <line x1="34.942" y1="31.415" x2="58.481" y2="26.733" stroke-width="0.9" />
    <line x1="16" y1="8" x2="16" y2="56" stroke-width="0.75" />
    <line x1="24" y1="8" x2="24" y2="56" stroke-width="0.75" />
    <line x1="40" y1="8" x2="40" y2="56" stroke-width="0.75" />
    <line x1="48" y1="8" x2="48" y2="56" stroke-width="0.75" />
    <line x1="8" y1="16" x2="56" y2="16" stroke-width="0.75" />
    <line x1="8" y1="24" x2="56" y2="24" stroke-width="0.75" />
    <line x1="8" y1="40" x2="56" y2="40" stroke-width="0.75" />
    <line x1="8" y1="48" x2="56" y2="48" stroke-width="0.75" />
  </g>
</svg>
