<svg xmlns="http://www.w3.org/2000/svg" width="64" height="64" viewBox="0 0 64 64">
  <title>radial spokes</title>
  <g fill="none" stroke="#FFFFFF" stroke-linecap="butt" stroke-linejoin="miter">
    <circle cx="32" cy="32" r="19" stroke-width="1.4" />
    <circle cx="32" cy="32" r="8" stroke-width="1.3" />
    <line x1="37" y1="32" x2="56" y2="32" stroke-width="1.25" />
    <line x1="36.619" y1="33.913" x2="54.173" y2="41.184" stroke-width="1.25" />
    <line x1="35.536" y1="35.536" x2="48.971" y2="48.971" stroke-width="1.25" />
    <line x1="33.913" y1="36.619" x2="41.184" y2="54.173" stroke-width="1.25" />
    <line x1="32" y1="37" x2="32" y2="56" stroke-width="1.25" />
    <line x1="30.087" y1="36.619" x2="22.816" y2="54.173" stroke-width="1.25" />
    <line x1="28.464" y1="35.536" x2="15.029" y2="48.971" stroke-width="1.25" />
    <line x1="27.381" y1="33.913" x2="9.827" y2="41.184" stroke-width="1.25" />
    <line x1="27" y1="32" x2="8" y2="32" stroke-width="1.25" />
    <line x1="27.381" y1="30.087" x2="9.827" y2="22.816" stroke-width="1.25" />
    <line x1="28.464" y1="28.464" x2="15.029" y2="15.029" stroke-width="1.25" />
    <line x1="30.087" y1="27.381" x2="22.816" y2="9.827" stroke-width="1.25" />
    <line x1="32" y1="27" x2="32" y2="8" stroke-width="1.25" />
    <line x1="33.913" y1="27.381" x2="41.184" y2="9.827" stroke-width="1.25" />
    <line x1="35.536" y1="28.464" x2="48.971" y2="15.029" stroke-width="1.25" />
    <line x1="36.619" y1="30.087" x2="54.173" y2="22.816" stroke-width="1.25" />
    <circle cx="32" cy="32" r="2" fill="#FFFFFF" stroke="none" />
  </g>
</svg>
