<svg xmlns="http://www.w3.org/2000/svg" width="64" height="64" viewBox="0 0 64 64">
  <title>near-solid geometric fill</title>
  <g fill="none" stroke="#FFFFFF" stroke-linecap="butt" stroke-linejoin="miter">
    <rect x="4" y="4" width="56" height="56" stroke-width="1.6" />
    <line x1="8" y1="56" x2="8" y2="56" stroke-width="1.55" />
    <line x1="8" y1="50" x2="14" y2="56" stroke-width="1.55" />
    <line x1="8" y1="44" x2="20" y2="56" stroke-width="1.55" />
    <line x1="8" y1="38" x2="26" y2="56" stroke-width="1.55" />
    <line x1="8" y1="32" x2="32" y2="56" stroke-width="1.55" />
    <line x1="8" y1="26" x2="38" y2="56" stroke-width="1.55" />
    <line x1="8" y1="20" x2="44" y2="56" stroke-width="1.55" />
    <line x1="8" y1="14" x2="50" y2="56" stroke-width="1.55" />
    <line x1="8" y1="8" x2="56" y2="56" stroke-width="1.55" />
    <line x1="8" y1="8" x2="56" y2="56" stroke-width="1.55" />
    <line x1="12" y1="8" x2="56" y2="56" stroke-width="1.55" />
    <line x1="18" y1="8" x2="56" y2="56" stroke-width="1.55" />
    <line x1="24" y1="8" x2="56" y2="56" stroke-width="1.55" />
    <line x1="30" y1="8" x2="56" y2="56" stroke-width="1.55" />
    <line x1="36" y1="8" x2="56" y2="56" stroke-width="1.55" />
    <line x1="42" y1="8" x2="56" y2="56" stroke-width="1.55" />
    <line x1="48" y1="8" x2="56" y2="56" stroke-width="1.55" />
    <line x1="54" y1="8" x2="56" y2="50" stroke-width="1.55" />
    <line x1="60" y1="8" x2="56" y2="44" stroke-width="1.55" />
    <line x1="66" y1="8" x2="56" y2="38" stroke-width="1.55" />
    <line x1="72" y1="8" x2="56" y2="32" stroke-width="1.55" />
    <line x1="78" y1="8" x2="56" y2="26" stroke-width="1.55" />
    <line x1="8" y1="-8" x2="-8" y2="8" stroke-width="1.55" />
    <line x1="8" y1="-2" x2="-2" y2="8" stroke-width="1.55" />
    <line x1="8" y1="4" x2="4" y2="8" stroke-width="1.55" />
    <line x1="8" y1="10" x2="10" y2="8" stroke-width="1.55" />
    <line x1="8" y1="16" x2="16" y2="8" stroke-width="1.55" />
    <line x1="8" y1="22" x2="22" y2="8" stroke-width="1.55" />
    <line x1="8" y1="28" x2="28" y2="8" stroke-width="1.55" />
    <line x1="8" y1="34" x2="34" y2="8" stroke-width="1.55" />
    <line x1="8" y1="40" x2="40" y2="8" stroke-width="1.55" />
    <line x1="8" y1="46" x2="46" y2="8" stroke-width="1.55" />
    <line x1="8" y1="52" x2="52" y2="8" stroke-width="1.55" />
    <line x1="10" y1="56" x2="56" y2="10" stroke-width="1.55" />
    <line x1="16" y1="56" x2="56" y2="16" stroke-width="1.55" />
    <line x1="22" y1="56" x2="56" y2="22" stroke-width="1.55" />
    <line x1="28" y1="56" x2="56" y2="28" stroke-width="1.55" />
    <line x1="34" y1="56" x2="56" y2="34" stroke-width="1.55" />
    <line x1="40" y1="56" x2="56" y2="40" stroke-width="1.55" />
    <line x1="46" y1="56" x2="56" y2="46" stroke-width="1.55" />
    <line x1="52" y1="56" x2="56" y2="52" stroke-width="1.55" />
    <line x1="10" y1="4" x2="10" y2="60" stroke-width="1.05" />
    <line x1="16" y1="4" x2="16" y2="60" stroke-width="1.05" />
    <line x1="22" y1="4" x2="22" y2="60" stroke-width="1.05" />
    <line x1="28" y1="4" x2="28" y2="60" stroke-width="1.05" />
    <line x1="34" y1="4" x2="34" y2="60" stroke-width="1.05" />
    <line x1="40" y1="4" x2="40" y2="60" stroke-width="1.05" />
    <line x1="46" y1="4" x2="46" y2="60" stroke-width="1.05" />
    <line x1="52" y1="4" x2="52" y2="60" stroke-width="1.05" />
    <line x1="4" y1="10" x2="60" y2="10" stroke-width="1.05" />
    <line x1="4" y1="16" x2="60" y2="16" stroke-width="1.05" />
    <line x1="4" y1="22" x2="60" y2="22" stroke-width="1.05" />
    <line x1="4" y1="28" x2="60" y2="28" stroke-width="1.05" />
    <line x1="4" y1="34" x2="60" y2="34" stroke-width="1.05" />
    <line x1="4" y1="40" x2="60" y2="40" stroke-width="1.05" />
    <line x1="4" y1="46" x2="60" y2="46" stroke-width="1.05" />
    <line x1="4" y1="52" x2="60" y2="52" stroke-width="1.05" />
    <circle cx="32" cy="32" r="23" stroke-width="1.35" />
    <rect x="14" y="14" width="36" height="36" stroke-width="1.35" />
  </g>
</svg>
