<svg xmlns="http://www.w3.org/2000/svg" width="64" height="64" viewBox="0 0 64 64">
  <title>ultra dense</title>
  <g fill="none" stroke="#FFFFFF" stroke-linecap="butt" stroke-linejoin="miter">
    <rect x="8.45" y="8.45" width="3.1" height="3.1" fill="#FFFFFF" stroke="none" />
    <rect x="12.45" y="8.45" width="3.1" height="3.1" fill="#FFFFFF" stroke="none" />
    <rect x="16.45" y="8.45" width="3.1" height="3.1" fill="#FFFFFF" stroke="none" />
    <rect x="20.45" y="8.45" width="3.1" height="3.1" fill="#FFFFFF" stroke="none" />
    <rect x="24.45" y="8.45" width="3.1" height="3.1" fill="#FFFFFF" stroke="none" />
    <rect x="28.45" y="8.45" width="3.1" height="3.1" fill="#FFFFFF" stroke="none" />
    <rect x="32.45" y="8.45" width="3.1" height="3.1" fill="#FFFFFF" stroke="none" />
    <rect x="36.45" y="8.45" width="3.1" height="3.1" fill="#FFFFFF" stroke="none" />
    <rect x="40.45" y="8.45" width="3.1" height="3.1" fill="#FFFFFF" stroke="none" />
    <rect x="44.45" y="8.45" width="3.1" height="3.1" fill="#FFFFFF" stroke="none" />
    <rect x="48.45" y="8.45" width="3.1" height="3.1" fill="#FFFFFF" stroke="none" />
    <rect x="52.45" y="8.45" width="3.1" height="3.1" fill="#FFFFFF" stroke="none" />
    <rect x="8.45" y="12.45" width="3.1" height="3.1" fill="#FFFFFF" stroke="none" />
    <rect x="12.45" y="12.45" width="3.1" height="3.1" fill="#FFFFFF" stroke="none" />
    <rect x="16.45" y="12.45" width="3.1" height="3.1" fill="#FFFFFF" stroke="none" />
    <rect x="20.45" y="12.45" width="3.1" height="3.1" fill="#FFFFFF" stroke="none" />
    <rect x="24.45" y="12.45" width="3.1" height="3.1" fill="#FFFFFF" stroke="none" />
    <rect x="28.45" y="12.45" width="3.1" height="3.1" fill="#FFFFFF" stroke="none" />
    <rect x="32.45" y="12.45" width="3.1" height="3.1" fill="#FFFFFF" stroke="none" />
    <rect x="36.45" y="12.45" width="3.1" height="3.1" fill="#FFFFFF" stroke="none" />
    <rect x="40.45" y="12.45" width="3.1" height="3.1" fill="#FFFFFF" stroke="none" />
    <rect x="44.45" y="12.45" width="3.1" height="3.1" fill="#FFFFFF" stroke="none" />
    <rect x="48.45" y="12.45" width="3.1" height="3.1" fill="#FFFFFF" stroke="none" />
    <rect x="52.45" y="12.45" width="3.1" height="3.1" fill="#FFFFFF" stroke="none" />
    <rect x="8.45" y="16.45" width="3.1" height="3.1" fill="#FFFFFF" stroke="none" />
    <rect x="12.45" y="16.45" width="3.1" height="3.1" fill="#FFFFFF" stroke="none" />
    <rect x="16.45" y="16.45" width="3.1" height="3.1" fill="#FFFFFF" stroke="none" />
    <rect x="20.45" y="16.45" width="3.1" height="3.1" fill="#FFFFFF" stroke="none" />
    <rect x="24.45" y="16.45" width="3.1" height="3.1" fill="#FFFFFF" stroke="none" />
    <rect x="28.45" y="16.45" width="3.1" height="3.1" fill="#FFFFFF" stroke="none" />
    <rect x="32.45" y="16.45" width="3.1" height="3.1" fill="#FFFFFF" stroke="none" />
    <rect x="36.45" y="16.45" width="3.1" height="3.1" fill="#FFFFFF" stroke="none" />
    <rect x="40.45" y="16.45" width="3.1" height="3.1" fill="#FFFFFF" stroke="none" />
    <rect x="44.45" y="16.45" width="3.1" height="3.1" fill="#FFFFFF" stroke="none" />
    <rect x="48.45" y="16.45" width="3.1" height="3.1" fill="#FFFFFF" stroke="none" />
    <rect x="52.45" y="16.45" width="3.1" height="3.1" fill="#FFFFFF" stroke="none" />
    <rect x="8.45" y="20.45" width="3.1" height="3.1" fill="#FFFFFF" stroke="none" />
    <rect x="12.45" y="20.45" width="3.1" height="3.1" fill="#FFFFFF" stroke="none" />
    <rect x="16.45" y="20.45" width="3.1" height="3.1" fill="#FFFFFF" stroke="none" />
    <rect x="20.45" y="20.45" width="3.1" height="3.1" fill="#FFFFFF" stroke="none" />
    <rect x="24.45" y="20.45" width="3.1" height="3.1" fill="#FFFFFF" stroke="none" />
    <rect x="28.45" y="20.45" width="3.1" height="3.1" fill="#FFFFFF" stroke="none" />
    <rect x="32.45" y="20.45" width="3.1" height="3.1" fill="#FFFFFF" stroke="none" />
    <rect x="36.45" y="20.45" width="3.1" height="3.1" fill="#FFFFFF" stroke="none" />
    <rect x="40.45" y="20.45" width="3.1" height="3.1" fill="#FFFFFF" stroke="none" />
    <rect x="44.45" y="20.45" width="3.1" height="3.1" fill="#FFFFFF" stroke="none" />
    <rect x="48.45" y="20.45" width="3.1" height="3.1" fill="#FFFFFF" stroke="none" />
    <rect x="52.45" y="20.45" width="3.1" height="3.1" fill="#FFFFFF" stroke="none" />
    <rect x="8.45" y="24.45" width="3.1" height="3.1" fill="#FFFFFF" stroke="none" />
    <rect x="12.45" y="24.45" width="3.1" height="3.1" fill="#FFFFFF" stroke="none" />
    <rect x="16.45" y="24.45" width="3.1" height="3.1" fill="#FFFFFF" stroke="none" />
    <rect x="20.45" y="24.45" width="3.1" height="3.1" fill="#FFFFFF" stroke="none" />
    <rect x="24.45" y="24.45" width="3.1" height="3.1" fill="#FFFFFF" stroke="none" />
    <rect x="28.45" y="24.45" width="3.1" height="3.1" fill="#FFFFFF" stroke="none" />
    <rect x="32.45" y="24.45" width="3.1" height="3.1" fill="#FFFFFF" stroke="none" />
    <rect x="36.45" y="24.45" width="3.1" height="3.1" fill="#FFFFFF" stroke="none" />
    <rect x="40.45" y="24.45" width="3.1" height="3.1" fill="#FFFFFF" stroke="none" />
    <rect x="44.45" y="24.45" width="3.1" height="3.1" fill="#FFFFFF" stroke="none" />
    <rect x="48.45" y="24.45" width="3.1" height="3.1" fill="#FFFFFF" stroke="none" />
    <rect x="52.45" y="24.45" width="3.1" height="3.1" fill="#FFFFFF" stroke="none" />
    <rect x="8.45" y="28.45" width="3.1" height="3.1" fill="#FFFFFF" stroke="none" />
    <rect x="12.45" y="28.45" width="3.1" height="3.1" fill="#FFFFFF" stroke="none" />
    <rect x="16.45" y="28.45" width="3.1" height="3.1" fill="#FFFFFF" stroke="none" />
    <rect x="20.45" y="28.45" width="3.1" height="3.1" fill="#FFFFFF" stroke="none" />
    <rect x="24.45" y="28.45" width="3.1" height="3.1" fill="#FFFFFF" stroke="none" />
    <rect x="28.45" y="28.45" width="3.1" height="3.1" fill="#FFFFFF" stroke="none" />
    <rect x="32.45" y="28.45" width="3.1" height="3.1" fill="#FFFFFF" stroke="none" />
    <rect x="36.45" y="28.45" width="3.1" height="3.1" fill="#FFFFFF" stroke="none" />
    <rect x="40.45" y="28.45" width="3.1" height="3.1" fill="#FFFFFF" stroke="none" />
    <rect x="44.45" y="28.45" width="3.1" height="3.1" fill="#FFFFFF" stroke="none" />
    <rect x="48.45" y="28.45" width="3.1" height="3.1" fill="#FFFFFF" stroke="none" />
    <rect x="52.45" y="28.45" width="3.1" height="3.1" fill="#FFFFFF" stroke="none" />
    <rect x="8.45" y="32.45" width="3.1" height="3.1" fill="#FFFFFF" stroke="none" />
    <rect x="12.45" y="32.45" width="3.1" height="3.1" fill="#FFFFFF" stroke="none" />
    <rect x="16.45" y="32.45" width="3.1" height="3.1" fill="#FFFFFF" stroke="none" />
    <rect x="20.45" y="32.45" width="3.1" height="3.1" fill="#FFFFFF" stroke="none" />
    <rect x="24.45" y="32.45" width="3.1" height="3.1" fill="#FFFFFF" stroke="none" />
    <rect x="28.45" y="32.45" width="3.1" height="3.1" fill="#FFFFFF" stroke="none" />
    <rect x="32.45" y="32.45" width="3.1" height="3.1" fill="#FFFFFF" stroke="none" />
    <rect x="36.45" y="32.45" width="3.1" height="3.1" fill="#FFFFFF" stroke="none" />
    <rect x="40.45" y="32.45" width="3.1" height="3.1" fill="#FFFFFF" stroke="none" />
    <rect x="44.45" y="32.45" width="3.1" height="3.1" fill="#FFFFFF" stroke="none" />
    <rect x="48.45" y="32.45" width="3.1" height="3.1" fill="#FFFFFF" stroke="none" />
    <rect x="52.45" y="32.45" width="3.1" height="3.1" fill="#FFFFFF" stroke="none" />
    <rect x="8.45" y="36.45" width="3.1" height="3.1" fill="#FFFFFF" stroke="none" />
    <rect x="12.45" y="36.45" width="3.1" height="3.1" fill="#FFFFFF" stroke="none" />
    <rect x="16.45" y="36.45" width="3.1" height="3.1" fill="#FFFFFF" stroke="none" />
    <rect x="20.45" y="36.45" width="3.1" height="3.1" fill="#FFFFFF" stroke="none" />
    <rect x="24.45" y="36.45" width="3.1" height="3.1" fill="#FFFFFF" stroke="none" />
    <rect x="28.45" y="36.45" width="3.1" height="3.1" fill="#FFFFFF" stroke="none" />
    <rect x="32.45" y="36.45" width="3.1" height="3.1" fill="#FFFFFF" stroke="none" />
    <rect x="36.45" y="36.45" width="3.1" height="3.1" fill="#FFFFFF" stroke="none" />
    <rect x="40.45" y="36.45" width="3.1" height="3.1" fill="#FFFFFF" stroke="none" />
    <rect x="44.45" y="36.45" width="3.1" height="3.1" fill="#FFFFFF" stroke="none" />
    <rect x="48.45" y="36.45" width="3.1" height="3.1" fill="#FFFFFF" stroke="none" />
    <rect x="52.45" y="36.45" width="3.1" height="3.1" fill="#FFFFFF" stroke="none" />
    <rect x="8.45" y="40.45" width="3.1" height="3.1" fill="#FFFFFF" stroke="none" />
    <rect x="12.45" y="40.45" width="3.1" height="3.1" fill="#FFFFFF" stroke="none" />
    <rect x="16.45" y="40.45" width="3.1" height="3.1" fill="#FFFFFF" stroke="none" />
    <rect x="20.45" y="40.45" width="3.1" height="3.1" fill="#FFFFFF" stroke="none" />
    <rect x="24.45" y="40.45" width="3.1" height="3.1" fill="#FFFFFF" stroke="none" />
    <rect x="28.45" y="40.45" width="3.1" height="3.1" fill="#FFFFFF" stroke="none" />
    <rect x="32.45" y="40.45" width="3.1" height="3.1" fill="#FFFFFF" stroke="none" />
    <rect x="36.45" y="40.45" width="3.1" height="3.1" fill="#FFFFFF" stroke="none" />
    <rect x="40.45" y="40.45" width="3.1" height="3.1" fill="#FFFFFF" stroke="none" />
    <rect x="44.45" y="40.45" width="3.1" height="3.1" fill="#FFFFFF" stroke="none" />
    <rect x="48.45" y="40.45" width="3.1" height="3.1" fill="#FFFFFF" stroke="none" />
    <rect x="52.45" y="40.45" width="3.1" height="3.1" fill="#FFFFFF" stroke="none" />
    <rect x="8.45" y="44.45" width="3.1" height="3.1" fill="#FFFFFF" stroke="none" />
    <rect x="12.45" y="44.45" width="3.1" height="3.1" fill="#FFFFFF" stroke="none" />
    <rect x="16.45" y="44.45" width="3.1" height="3.1" fill="#FFFFFF" stroke="none" />
    <rect x="20.45" y="44.45" width="3.1" height="3.1" fill="#FFFFFF" stroke="none" />
    <rect x="24.45" y="44.45" width="3.1" height="3.1" fill="#FFFFFF" stroke="none" />
    <rect x="28.45" y="44.45" width="3.1" height="3.1" fill="#FFFFFF" stroke="none" />
    <rect x="32.45" y="44.45" width="3.1" height="3.1" fill="#FFFFFF" stroke="none" />
    <rect x="36.45" y="44.45" width="3.1" height="3.1" fill="#FFFFFF" stroke="none" />
    <rect x="40.45" y="44.45" width="3.1" height="3.1" fill="#FFFFFF" stroke="none" />
    <rect x="44.45" y="44.45" width="3.1" height="3.1" fill="#FFFFFF" stroke="none" />
    <rect x="48.45" y="44.45" width="3.1" height="3.1" fill="#FFFFFF" stroke="none" />
    <rect x="52.45" y="44.45" width="3.1" height="3.1" fill="#FFFFFF" stroke="none" />
    <rect x="8.45" y="48.45" width="3.1" height="3.1" fill="#FFFFFF" stroke="none" />
    <rect x="12.45" y="48.45" width="3.1" height="3.1" fill="#FFFFFF" stroke="none" />
    <rect x="16.45" y="48.45" width="3.1" height="3.1" fill="#FFFFFF" stroke="none" />
    <rect x="20.45" y="48.45" width="3.1" height="3.1" fill="#FFFFFF" stroke="none" />
    <rect x="24.45" y="48.45" width="3.1" height="3.1" fill="#FFFFFF" stroke="none" />
    <rect x="28.45" y="48.45" width="3.1" height="3.1" fill="#FFFFFF" stroke="none" />
    <rect x="32.45" y="48.45" width="3.1" height="3.1" fill="#FFFFFF" stroke="none" />
    <rect x="36.45" y="48.45" width="3.1" height="3.1" fill="#FFFFFF" stroke="none" />
    <rect x="40.45" y="48.45" width="3.1" height="3.1" fill="#FFFFFF" stroke="none" />
    <rect x="44.45" y="48.45" width="3.1" height="3.1" fill="#FFFFFF" stroke="none" />
    <rect x="48.45" y="48.45" width="3.1" height="3.1" fill="#FFFFFF" stroke="none" />
    <rect x="52.45" y="48.45" width="3.1" height="3.1" fill="#FFFFFF" stroke="none" />
    <rect x="8.45" y="52.45" width="3.1" height="3.1" fill="#FFFFFF" stroke="none" />
    <rect x="12.45" y="52.45" width="3.1" height="3.1" fill="#FFFFFF" stroke="none" />
    <rect x="16.45" y="52.45" width="3.1" height="3.1" fill="#FFFFFF" stroke="none" />
    <rect x="20.45" y="52.45" width="3.1" height="3.1" fill="#FFFFFF" stroke="none" />
    <rect x="24.45" y="52.45" width="3.1" height="3.1" fill="#FFFFFF" stroke="none" />
    <rect x="28.45" y="52.45" width="3.1" height="3.1" fill="#FFFFFF" stroke="none" />
    <rect x="32.45" y="52.45" width="3.1" height="3.1" fill="#FFFFFF" stroke="none" />
    <rect x="36.45" y="52.45" width="3.1" height="3.1" fill="#FFFFFF" stroke="none" />
    <rect x="40.45" y="52.45" width="3.1" height="3.1" fill="#FFFFFF" stroke="none" />
    <rect x="44.45" y="52.45" width="3.1" height="3.1" fill="#FFFFFF" stroke="none" />
    <rect x="48.45" y="52.45" width="3.1" height="3.1" fill="#FFFFFF" stroke="none" />
    <rect x="52.45" y="52.45" width="3.1" height="3.1" fill="#FFFFFF" stroke="none" />
    <line x1="8" y1="62" x2="2" y2="56" stroke-width="0.9" />
    <line x1="8" y1="55" x2="9" y2="56" stroke-width="0.9" />
    <line x1="8" y1="48" x2="16" y2="56" stroke-width="0.9" />
    <line x1="8" y1="41" x2="23" y2="56" stroke-width="0.9" />
    <line x1="8" y1="34" x2="30" y2="56" stroke-width="0.9" />
    <line x1="8" y1="27" x2="37" y2="56" stroke-width="0.9" />
    <line x1="8" y1="20" x2="44" y2="56" stroke-width="0.9" />
    <line x1="8" y1="13" x2="51" y2="56" stroke-width="0.9" />
    <line x1="12" y1="8" x2="56" y2="56" stroke-width="0.9" />
    <line x1="19" y1="8" x2="56" y2="56" stroke-width="0.9" />
    <line x1="26" y1="8" x2="56" y2="56" stroke-width="0.9" />
    <line x1="33" y1="8" x2="56" y2="56" stroke-width="0.9" />
    <line x1="40" y1="8" x2="56" y2="56" stroke-width="0.9" />
    <line x1="47" y1="8" x2="56" y2="51" stroke-width="0.9" />
    <line x1="54" y1="8" x2="56" y2="44" stroke-width="0.9" />
    <line x1="61" y1="8" x2="56" y2="37" stroke-width="0.9" />
    <line x1="68" y1="8" x2="56" y2="30" stroke-width="0.9" />
    <line x1="75" y1="8" x2="56" y2="23" stroke-width="0.9" />
    <line x1="8" y1="-7" x2="-7" y2="8" stroke-width="0.9" />
    <line x1="8" y1="0" x2="0" y2="8" stroke-width="0.9" />
    <line x1="8" y1="7" x2="7" y2="8" stroke-width="0.9" />
    <line x1="8" y1="14" x2="14" y2="8" stroke-width="0.9" />
    <line x1="8" y1="21" x2="21" y2="8" stroke-width="0.9" />
    <line x1="8" y1="28" x2="28" y2="8" stroke-width="0.9" />
    <line x1="8" y1="35" x2="35" y2="8" stroke-width="0.9" />
    <line x1="8" y1="42" x2="42" y2="8" stroke-width="0.9" />
    <line x1="8" y1="49" x2="49" y2="8" stroke-width="0.9" />
    <line x1="8" y1="56" x2="56" y2="8" stroke-width="0.9" />
    <line x1="15" y1="56" x2="56" y2="15" stroke-width="0.9" />
    <line x1="22" y1="56" x2="56" y2="22" stroke-width="0.9" />
    <line x1="29" y1="56" x2="56" y2="29" stroke-width="0.9" />
    <line x1="36" y1="56" x2="56" y2="36" stroke-width="0.9" />
    <line x1="43" y1="56" x2="56" y2="43" stroke-width="0.9" />
    <line x1="50" y1="56" x2="56" y2="50" stroke-width="0.9" />
  </g>
</svg>
