<svg xmlns="http://www.w3.org/2000/svg" width="64" height="64" viewBox="0 0 64 64">
  <title>technical pattern plus center</title>
  <g fill="none" stroke="#FFFFFF" stroke-linecap="butt" stroke-linejoin="miter">
    <rect x="12" y="12" width="40" height="40" stroke-width="1" />
    <line x1="18" y1="12" x2="18" y2="52" stroke-width="0.75" />
    <line x1="24" y1="12" x2="24" y2="52" stroke-width="0.75" />
    <line x1="30" y1="12" x2="30" y2="52" stroke-width="0.75" />
    <line x1="36" y1="12" x2="36" y2="52" stroke-width="0.75" />
    <line x1="42" y1="12" x2="42" y2="52" stroke-width="0.75" />
    <line x1="48" y1="12" x2="48" y2="52" stroke-width="0.75" />
    <line x1="12" y1="18" x2="52" y2="18" stroke-width="0.75" />
    <line x1="12" y1="24" x2="52" y2="24" stroke-width="0.75" />
    <line x1="12" y1="30" x2="52" y2="30" stroke-width="0.75" />
    <line x1="12" y1="36" x2="52" y2="36" stroke-width="0.75" />
    <line x1="12" y1="42" x2="52" y2="42" stroke-width="0.75" />
    <line x1="12" y1="48" x2="52" y2="48" stroke-width="0.75" />
    <circle cx="16" cy="16" r="0.9" fill="#FFFFFF" stroke="none" />
    <circle cx="24" cy="16" r="0.9" fill="#FFFFFF" stroke="none" />
    <circle cx="32" cy="16" r="0.9" fill="#FFFFFF" stroke="none" />
    <circle cx="40" cy="16" r="0.9" fill="#FFFFFF" stroke="none" />
    <circle cx="48" cy="16" r="0.9" fill="#FFFFFF" stroke="none" />
    <circle cx="16" cy="24" r="0.9" fill="#FFFFFF" stroke="none" />
    <circle cx="24" cy="24" r="0.9" fill="#FFFFFF" stroke="none" />
    <circle cx="32" cy="24" r="0.9" fill="#FFFFFF" stroke="none" />
    <circle cx="40" cy="24" r="0.9" fill="#FFFFFF" stroke="none" />
    <circle cx="48" cy="24" r="0.9" fill="#FFFFFF" stroke="none" />
    <circle cx="16" cy="32" r="0.9" fill="#FFFFFF" stroke="none" />
    <circle cx="24" cy="32" r="0.9" fill="#FFFFFF" stroke="none" />
    <circle cx="32" cy="32" r="0.9" fill="#FFFFFF" stroke="none" />
    <circle cx="40" cy="32" r="0.9" fill="#FFFFFF" stroke="none" />
    <circle cx="48" cy="32" r="0.9" fill="#FFFFFF" stroke="none" />
    <circle cx="16" cy="40" r="0.9" fill="#FFFFFF" stroke="none" />
    <circle cx="24" cy="40" r="0.9" fill="#FFFFFF" stroke="none" />
    <circle cx="32" cy="40" r="0.9" fill="#FFFFFF" stroke="none" />
    <circle cx="40" cy="40" r="0.9" fill="#FFFFFF" stroke="none" />
    <circle cx="48" cy="40" r="0.9" fill="#FFFFFF" stroke="none" />
    <circle cx="16" cy="48" r="0.9" fill="#FFFFFF" stroke="none" />
    <circle cx="24" cy="48" r="0.9" fill="#FFFFFF" stroke="none" />
    <circle cx="32" cy="48" r="0.9" fill="#FFFFFF" stroke="none" />
    <circle cx="40" cy="48" r="0.9" fill="#FFFFFF" stroke="none" />
    <circle cx="48" cy="48" r="0.9" fill="#FFFFFF" stroke="none" />
    <circle cx="32" cy="32" r="4.3" stroke-width="1" />
  </g>
</svg>
