<?xml version="1.0" encoding="UTF-8"?>
<svg xmlns="http://www.w3.org/2000/svg" width="64" height="64" viewBox="0 0 64 64" shape-rendering="geometricPrecision">
  <title>dense lattice block</title>
  <g><line x1="-64" y1="56" x2="-16" y2="8" stroke="#FFFFFF" stroke-width="2" stroke-linecap="butt" /><line x1="-54" y1="56" x2="-6" y2="8" stroke="#FFFFFF" stroke-width="2" stroke-linecap="butt" /><line x1="-44" y1="56" x2="4" y2="8" stroke="#FFFFFF" stroke-width="2" stroke-linecap="butt" /><line x1="-34" y1="56" x2="14" y2="8" stroke="#FFFFFF" stroke-width="2" stroke-linecap="butt" /><line x1="-24" y1="56" x2="24" y2="8" stroke="#FFFFFF" stroke-width="2" stroke-linecap="butt" /><line x1="-14" y1="56" x2="34" y2="8" stroke="#FFFFFF" stroke-width="2" stroke-linecap="butt" /><line x1="-4" y1="56" x2="44" y2="8" stroke="#FFFFFF" stroke-width="2" stroke-linecap="butt" /><line x1="6" y1="56" x2="54" y2="8" stroke="#FFFFFF" stroke-width="2" stroke-linecap="butt" /><line x1="16" y1="56" x2="64" y2="8" stroke="#FFFFFF" stroke-width="2" stroke-linecap="butt" /><line x1="26" y1="56" x2="74" y2="8" stroke="#FFFFFF" stroke-width="2" stroke-linecap="butt" /><line x1="36" y1="56" x2="84" y2="8" stroke="#FFFFFF" stroke-width="2" stroke-linecap="butt" /><line x1="46" y1="56" x2="94" y2="8" stroke="#FFFFFF" stroke-width="2" stroke-linecap="butt" /><line x1="56" y1="56" x2="104" y2="8" stroke="#FFFFFF" stroke-width="2" stroke-linecap="butt" /><line x1="66" y1="56" x2="114" y2="8" stroke="#FFFFFF" stroke-width="2" stroke-linecap="butt" /><line x1="76" y1="56" x2="124" y2="8" stroke="#FFFFFF" stroke-width="2" stroke-linecap="butt" /><line x1="86" y1="56" x2="134" y2="8" stroke="#FFFFFF" stroke-width="2" stroke-linecap="butt" /><line x1="96" y1="56" x2="144" y2="8" stroke="#FFFFFF" stroke-width="2" stroke-linecap="butt" /><line x1="106" y1="56" x2="154" y2="8" stroke="#FFFFFF" stroke-width="2" stroke-linecap="butt" /><line x1="116" y1="56" x2="164" y2="8" stroke="#FFFFFF" stroke-width="2" stroke-linecap="butt" /><line x1="126" y1="56" x2="174" y2="8" stroke="#FFFFFF" stroke-width="2" stroke-linecap="butt" /><line x1="-64" y1="8" x2="-112" y2="56" stroke="#FFFFFF" stroke-width="2" stroke-linecap="butt" /><line x1="-54" y1="8" x2="-102" y2="56" stroke="#FFFFFF" stroke-width="2" stroke-linecap="butt" /><line x1="-44" y1="8" x2="-92" y2="56" stroke="#FFFFFF" stroke-width="2" stroke-linecap="butt" /><line x1="-34" y1="8" x2="-82" y2="56" stroke="#FFFFFF" stroke-width="2" stroke-linecap="butt" /><line x1="-24" y1="8" x2="-72" y2="56" stroke="#FFFFFF" stroke-width="2" stroke-linecap="butt" /><line x1="-14" y1="8" x2="-62" y2="56" stroke="#FFFFFF" stroke-width="2" stroke-linecap="butt" /><line x1="-4" y1="8" x2="-52" y2="56" stroke="#FFFFFF" stroke-width="2" stroke-linecap="butt" /><line x1="6" y1="8" x2="-42" y2="56" stroke="#FFFFFF" stroke-width="2" stroke-linecap="butt" /><line x1="16" y1="8" x2="-32" y2="56" stroke="#FFFFFF" stroke-width="2" stroke-linecap="butt" /><line x1="26" y1="8" x2="-22" y2="56" stroke="#FFFFFF" stroke-width="2" stroke-linecap="butt" /><line x1="36" y1="8" x2="-12" y2="56" stroke="#FFFFFF" stroke-width="2" stroke-linecap="butt" /><line x1="46" y1="8" x2="-2" y2="56" stroke="#FFFFFF" stroke-width="2" stroke-linecap="butt" /><line x1="56" y1="8" x2="8" y2="56" stroke="#FFFFFF" stroke-width="2" stroke-linecap="butt" /><line x1="66" y1="8" x2="18" y2="56" stroke="#FFFFFF" stroke-width="2" stroke-linecap="butt" /><line x1="76" y1="8" x2="28" y2="56" stroke="#FFFFFF" stroke-width="2" stroke-linecap="butt" /><line x1="86" y1="8" x2="38" y2="56" stroke="#FFFFFF" stroke-width="2" stroke-linecap="butt" /><line x1="96" y1="8" x2="48" y2="56" stroke="#FFFFFF" stroke-width="2" stroke-linecap="butt" /><line x1="106" y1="8" x2="58" y2="56" stroke="#FFFFFF" stroke-width="2" stroke-linecap="butt" /><line x1="116" y1="8" x2="68" y2="56" stroke="#FFFFFF" stroke-width="2" stroke-linecap="butt" /><line x1="126" y1="8" x2="78" y2="56" stroke="#FFFFFF" stroke-width="2" stroke-linecap="butt" /></g>
</svg>
