<?xml version="1.0" encoding="UTF-8"?>
<svg xmlns="http://www.w3.org/2000/svg" width="64" height="64" viewBox="0 0 64 64" shape-rendering="geometricPrecision">
  <title>crosshatch core</title>
  <g><line x1="-64" y1="54" x2="-20" y2="10" stroke="#FFFFFF" stroke-width="2" stroke-linecap="butt" /><line x1="-54" y1="54" x2="-10" y2="10" stroke="#FFFFFF" stroke-width="2" stroke-linecap="butt" /><line x1="-44" y1="54" x2="0" y2="10" stroke="#FFFFFF" stroke-width="2" stroke-linecap="butt" /><line x1="-34" y1="54" x2="10" y2="10" stroke="#FFFFFF" stroke-width="2" stroke-linecap="butt" /><line x1="-24" y1="54" x2="20" y2="10" stroke="#FFFFFF" stroke-width="2" stroke-linecap="butt" /><line x1="-14" y1="54" x2="30" y2="10" stroke="#FFFFFF" stroke-width="2" stroke-linecap="butt" /><line x1="-4" y1="54" x2="40" y2="10" stroke="#FFFFFF" stroke-width="2" stroke-linecap="butt" /><line x1="6" y1="54" x2="50" y2="10" stroke="#FFFFFF" stroke-width="2" stroke-linecap="butt" /><line x1="16" y1="54" x2="60" y2="10" stroke="#FFFFFF" stroke-width="2" stroke-linecap="butt" /><line x1="26" y1="54" x2="70" y2="10" stroke="#FFFFFF" stroke-width="2" stroke-linecap="butt" /><line x1="36" y1="54" x2="80" y2="10" stroke="#FFFFFF" stroke-width="2" stroke-linecap="butt" /><line x1="46" y1="54" x2="90" y2="10" stroke="#FFFFFF" stroke-width="2" stroke-linecap="butt" /><line x1="56" y1="54" x2="100" y2="10" stroke="#FFFFFF" stroke-width="2" stroke-linecap="butt" /><line x1="66" y1="54" x2="110" y2="10" stroke="#FFFFFF" stroke-width="2" stroke-linecap="butt" /><line x1="76" y1="54" x2="120" y2="10" stroke="#FFFFFF" stroke-width="2" stroke-linecap="butt" /><line x1="86" y1="54" x2="130" y2="10" stroke="#FFFFFF" stroke-width="2" stroke-linecap="butt" /><line x1="96" y1="54" x2="140" y2="10" stroke="#FFFFFF" stroke-width="2" stroke-linecap="butt" /><line x1="106" y1="54" x2="150" y2="10" stroke="#FFFFFF" stroke-width="2" stroke-linecap="butt" /><line x1="116" y1="54" x2="160" y2="10" stroke="#FFFFFF" stroke-width="2" stroke-linecap="butt" /><line x1="126" y1="54" x2="170" y2="10" stroke="#FFFFFF" stroke-width="2" stroke-linecap="butt" /><line x1="-64" y1="10" x2="-108" y2="54" stroke="#FFFFFF" stroke-width="2" stroke-linecap="butt" /><line x1="-54" y1="10" x2="-98" y2="54" stroke="#FFFFFF" stroke-width="2" stroke-linecap="butt" /><line x1="-44" y1="10" x2="-88" y2="54" stroke="#FFFFFF" stroke-width="2" stroke-linecap="butt" /><line x1="-34" y1="10" x2="-78" y2="54" stroke="#FFFFFF" stroke-width="2" stroke-linecap="butt" /><line x1="-24" y1="10" x2="-68" y2="54" stroke="#FFFFFF" stroke-width="2" stroke-linecap="butt" /><line x1="-14" y1="10" x2="-58" y2="54" stroke="#FFFFFF" stroke-width="2" stroke-linecap="butt" /><line x1="-4" y1="10" x2="-48" y2="54" stroke="#FFFFFF" stroke-width="2" stroke-linecap="butt" /><line x1="6" y1="10" x2="-38" y2="54" stroke="#FFFFFF" stroke-width="2" stroke-linecap="butt" /><line x1="16" y1="10" x2="-28" y2="54" stroke="#FFFFFF" stroke-width="2" stroke-linecap="butt" /><line x1="26" y1="10" x2="-18" y2="54" stroke="#FFFFFF" stroke-width="2" stroke-linecap="butt" /><line x1="36" y1="10" x2="-8" y2="54" stroke="#FFFFFF" stroke-width="2" stroke-linecap="butt" /><line x1="46" y1="10" x2="2" y2="54" stroke="#FFFFFF" stroke-width="2" stroke-linecap="butt" /><line x1="56" y1="10" x2="12" y2="54" stroke="#FFFFFF" stroke-width="2" stroke-linecap="butt" /><line x1="66" y1="10" x2="22" y2="54" stroke="#FFFFFF" stroke-width="2" stroke-linecap="butt" /><line x1="76" y1="10" x2="32" y2="54" stroke="#FFFFFF" stroke-width="2" stroke-linecap="butt" /><line x1="86" y1="10" x2="42" y2="54" stroke="#FFFFFF" stroke-width="2" stroke-linecap="butt" /><line x1="96" y1="10" x2="52" y2="54" stroke="#FFFFFF" stroke-width="2" stroke-linecap="butt" /><line x1="106" y1="10" x2="62" y2="54" stroke="#FFFFFF" stroke-width="2" stroke-linecap="butt" /><line x1="116" y1="10" x2="72" y2="54" stroke="#FFFFFF" stroke-width="2" stroke-linecap="butt" /><line x1="126" y1="10" x2="82" y2="54" stroke="#FFFFFF" stroke-width="2" stroke-linecap="butt" /></g>
</svg>
