<?xml version="1.0" encoding="UTF-8"?>
<svg xmlns="http://www.w3.org/2000/svg" width="64" height="64" viewBox="0 0 64 64" shape-rendering="geometricPrecision">
  <title>full-cell crosshatch</title>
  <g><line x1="-64" y1="64" x2="0" y2="0" stroke="#FFFFFF" stroke-width="4" stroke-linecap="butt" /><line x1="-56" y1="64" x2="8" y2="0" stroke="#FFFFFF" stroke-width="4" stroke-linecap="butt" /><line x1="-48" y1="64" x2="16" y2="0" stroke="#FFFFFF" stroke-width="4" stroke-linecap="butt" /><line x1="-40" y1="64" x2="24" y2="0" stroke="#FFFFFF" stroke-width="4" stroke-linecap="butt" /><line x1="-32" y1="64" x2="32" y2="0" stroke="#FFFFFF" stroke-width="4" stroke-linecap="butt" /><line x1="-24" y1="64" x2="40" y2="0" stroke="#FFFFFF" stroke-width="4" stroke-linecap="butt" /><line x1="-16" y1="64" x2="48" y2="0" stroke="#FFFFFF" stroke-width="4" stroke-linecap="butt" /><line x1="-8" y1="64" x2="56" y2="0" stroke="#FFFFFF" stroke-width="4" stroke-linecap="butt" /><line x1="0" y1="64" x2="64" y2="0" stroke="#FFFFFF" stroke-width="4" stroke-linecap="butt" /><line x1="8" y1="64" x2="72" y2="0" stroke="#FFFFFF" stroke-width="4" stroke-linecap="butt" /><line x1="16" y1="64" x2="80" y2="0" stroke="#FFFFFF" stroke-width="4" stroke-linecap="butt" /><line x1="24" y1="64" x2="88" y2="0" stroke="#FFFFFF" stroke-width="4" stroke-linecap="butt" /><line x1="32" y1="64" x2="96" y2="0" stroke="#FFFFFF" stroke-width="4" stroke-linecap="butt" /><line x1="40" y1="64" x2="104" y2="0" stroke="#FFFFFF" stroke-width="4" stroke-linecap="butt" /><line x1="48" y1="64" x2="112" y2="0" stroke="#FFFFFF" stroke-width="4" stroke-linecap="butt" /><line x1="56" y1="64" x2="120" y2="0" stroke="#FFFFFF" stroke-width="4" stroke-linecap="butt" /><line x1="64" y1="64" x2="128" y2="0" stroke="#FFFFFF" stroke-width="4" stroke-linecap="butt" /><line x1="72" y1="64" x2="136" y2="0" stroke="#FFFFFF" stroke-width="4" stroke-linecap="butt" /><line x1="80" y1="64" x2="144" y2="0" stroke="#FFFFFF" stroke-width="4" stroke-linecap="butt" /><line x1="88" y1="64" x2="152" y2="0" stroke="#FFFFFF" stroke-width="4" stroke-linecap="butt" /><line x1="96" y1="64" x2="160" y2="0" stroke="#FFFFFF" stroke-width="4" stroke-linecap="butt" /><line x1="104" y1="64" x2="168" y2="0" stroke="#FFFFFF" stroke-width="4" stroke-linecap="butt" /><line x1="112" y1="64" x2="176" y2="0" stroke="#FFFFFF" stroke-width="4" stroke-linecap="butt" /><line x1="120" y1="64" x2="184" y2="0" stroke="#FFFFFF" stroke-width="4" stroke-linecap="butt" /><line x1="128" y1="64" x2="192" y2="0" stroke="#FFFFFF" stroke-width="4" stroke-linecap="butt" /><line x1="-64" y1="0" x2="-128" y2="64" stroke="#FFFFFF" stroke-width="4" stroke-linecap="butt" /><line x1="-56" y1="0" x2="-120" y2="64" stroke="#FFFFFF" stroke-width="4" stroke-linecap="butt" /><line x1="-48" y1="0" x2="-112" y2="64" stroke="#FFFFFF" stroke-width="4" stroke-linecap="butt" /><line x1="-40" y1="0" x2="-104" y2="64" stroke="#FFFFFF" stroke-width="4" stroke-linecap="butt" /><line x1="-32" y1="0" x2="-96" y2="64" stroke="#FFFFFF" stroke-width="4" stroke-linecap="butt" /><line x1="-24" y1="0" x2="-88" y2="64" stroke="#FFFFFF" stroke-width="4" stroke-linecap="butt" /><line x1="-16" y1="0" x2="-80" y2="64" stroke="#FFFFFF" stroke-width="4" stroke-linecap="butt" /><line x1="-8" y1="0" x2="-72" y2="64" stroke="#FFFFFF" stroke-width="4" stroke-linecap="butt" /><line x1="0" y1="0" x2="-64" y2="64" stroke="#FFFFFF" stroke-width="4" stroke-linecap="butt" /><line x1="8" y1="0" x2="-56" y2="64" stroke="#FFFFFF" stroke-width="4" stroke-linecap="butt" /><line x1="16" y1="0" x2="-48" y2="64" stroke="#FFFFFF" stroke-width="4" stroke-linecap="butt" /><line x1="24" y1="0" x2="-40" y2="64" stroke="#FFFFFF" stroke-width="4" stroke-linecap="butt" /><line x1="32" y1="0" x2="-32" y2="64" stroke="#FFFFFF" stroke-width="4" stroke-linecap="butt" /><line x1="40" y1="0" x2="-24" y2="64" stroke="#FFFFFF" stroke-width="4" stroke-linecap="butt" /><line x1="48" y1="0" x2="-16" y2="64" stroke="#FFFFFF" stroke-width="4" stroke-linecap="butt" /><line x1="56" y1="0" x2="-8" y2="64" stroke="#FFFFFF" stroke-width="4" stroke-linecap="butt" /><line x1="64" y1="0" x2="0" y2="64" stroke="#FFFFFF" stroke-width="4" stroke-linecap="butt" /><line x1="72" y1="0" x2="8" y2="64" stroke="#FFFFFF" stroke-width="4" stroke-linecap="butt" /><line x1="80" y1="0" x2="16" y2="64" stroke="#FFFFFF" stroke-width="4" stroke-linecap="butt" /><line x1="88" y1="0" x2="24" y2="64" stroke="#FFFFFF" stroke-width="4" stroke-linecap="butt" /><line x1="96" y1="0" x2="32" y2="64" stroke="#FFFFFF" stroke-width="4" stroke-linecap="butt" /><line x1="104" y1="0" x2="40" y2="64" stroke="#FFFFFF" stroke-width="4" stroke-linecap="butt" /><line x1="112" y1="0" x2="48" y2="64" stroke="#FFFFFF" stroke-width="4" stroke-linecap="butt" /><line x1="120" y1="0" x2="56" y2="64" stroke="#FFFFFF" stroke-width="4" stroke-linecap="butt" /><line x1="128" y1="0" x2="64" y2="64" stroke="#FFFFFF" stroke-width="4" stroke-linecap="butt" /></g>
</svg>
