<svg xmlns="http://www.w3.org/2000/svg" width="64" height="64" viewBox="0 0 64 64">
  <title>filled diamond</title>
  <g fill="none" stroke="#FFFFFF" stroke-linecap="butt" stroke-linejoin="miter">
    <polygon points="32,21 43,32 32,43 21,32" fill="#FFFFFF" stroke="none" />
    <line x1="22" y1="76" x2="-12" y2="42" stroke-width="0.75" />
    <line x1="22" y1="66" x2="-2" y2="42" stroke-width="0.75" />
    <line x1="22" y1="56" x2="8" y2="42" stroke-width="0.75" />
    <line x1="22" y1="46" x2="18" y2="42" stroke-width="0.75" />
    <line x1="22" y1="36" x2="28" y2="42" stroke-width="0.75" />
    <line x1="22" y1="26" x2="38" y2="42" stroke-width="0.75" />
    <line x1="22" y1="22" x2="42" y2="42" stroke-width="0.75" />
    <line x1="26" y1="22" x2="42" y2="42" stroke-width="0.75" />
    <line x1="36" y1="22" x2="42" y2="42" stroke-width="0.75" />
    <line x1="46" y1="22" x2="42" y2="42" stroke-width="0.75" />
    <line x1="56" y1="22" x2="42" y2="42" stroke-width="0.75" />
    <line x1="66" y1="22" x2="42" y2="32" stroke-width="0.75" />
    <line x1="76" y1="22" x2="42" y2="22" stroke-width="0.75" />
  </g>
</svg>
