<svg xmlns="http://www.w3.org/2000/svg" width="64" height="64" viewBox="0 0 64 64">
  <title>dense lattice</title>
  <g fill="none" stroke="#FFFFFF" stroke-linecap="butt" stroke-linejoin="miter">
    <line x1="16" y1="70" x2="-6" y2="48" stroke-width="0.9" />
    <line x1="16" y1="61" x2="3" y2="48" stroke-width="0.9" />
    <line x1="16" y1="52" x2="12" y2="48" stroke-width="0.9" />
    <line x1="16" y1="43" x2="21" y2="48" stroke-width="0.9" />
    <line x1="16" y1="34" x2="30" y2="48" stroke-width="0.9" />
    <line x1="16" y1="25" x2="39" y2="48" stroke-width="0.9" />
    <line x1="16" y1="16" x2="48" y2="48" stroke-width="0.9" />
    <line x1="19" y1="16" x2="48" y2="48" stroke-width="0.9" />
    <line x1="28" y1="16" x2="48" y2="48" stroke-width="0.9" />
    <line x1="37" y1="16" x2="48" y2="48" stroke-width="0.9" />
    <line x1="46" y1="16" x2="48" y2="48" stroke-width="0.9" />
    <line x1="55" y1="16" x2="48" y2="43" stroke-width="0.9" />
    <line x1="64" y1="16" x2="48" y2="34" stroke-width="0.9" />
    <line x1="73" y1="16" x2="48" y2="25" stroke-width="0.9" />
    <line x1="16" y1="-16" x2="-16" y2="16" stroke-width="0.9" />
    <line x1="16" y1="-7" x2="-7" y2="16" stroke-width="0.9" />
    <line x1="16" y1="2" x2="2" y2="16" stroke-width="0.9" />
    <line x1="16" y1="11" x2="11" y2="16" stroke-width="0.9" />
    <line x1="16" y1="20" x2="20" y2="16" stroke-width="0.9" />
    <line x1="16" y1="29" x2="29" y2="16" stroke-width="0.9" />
    <line x1="16" y1="38" x2="38" y2="16" stroke-width="0.9" />
    <line x1="16" y1="47" x2="47" y2="16" stroke-width="0.9" />
    <line x1="24" y1="48" x2="48" y2="24" stroke-width="0.9" />
    <line x1="33" y1="48" x2="48" y2="33" stroke-width="0.9" />
    <line x1="42" y1="48" x2="48" y2="42" stroke-width="0.9" />
    <line x1="51" y1="48" x2="48" y2="51" stroke-width="0.9" />
    <line x1="60" y1="48" x2="48" y2="60" stroke-width="0.9" />
    <line x1="24" y1="16" x2="24" y2="48" stroke-width="0.7" />
    <line x1="32" y1="16" x2="32" y2="48" stroke-width="0.7" />
    <line x1="40" y1="16" x2="40" y2="48" stroke-width="0.7" />
    <line x1="16" y1="24" x2="48" y2="24" stroke-width="0.7" />
    <line x1="16" y1="32" x2="48" y2="32" stroke-width="0.7" />
    <line x1="16" y1="40" x2="48" y2="40" stroke-width="0.7" />
  </g>
</svg>
