<svg xmlns="http://www.w3.org/2000/svg" width="64" height="64" viewBox="0 0 64 64">
  <title>very dense weave</title>
  <g fill="none" stroke="#FFFFFF" stroke-linecap="butt" stroke-linejoin="miter">
    <line x1="10" y1="64" x2="0" y2="54" stroke-width="1.05" />
    <line x1="10" y1="58" x2="6" y2="54" stroke-width="1.05" />
    <line x1="10" y1="52" x2="12" y2="54" stroke-width="1.05" />
    <line x1="10" y1="46" x2="18" y2="54" stroke-width="1.05" />
    <line x1="10" y1="40" x2="24" y2="54" stroke-width="1.05" />
    <line x1="10" y1="34" x2="30" y2="54" stroke-width="1.05" />
    <line x1="10" y1="28" x2="36" y2="54" stroke-width="1.05" />
    <line x1="10" y1="22" x2="42" y2="54" stroke-width="1.05" />
    <line x1="10" y1="16" x2="48" y2="54" stroke-width="1.05" />
    <line x1="10" y1="10" x2="54" y2="54" stroke-width="1.05" />
    <line x1="16" y1="10" x2="54" y2="54" stroke-width="1.05" />
    <line x1="22" y1="10" x2="54" y2="54" stroke-width="1.05" />
    <line x1="28" y1="10" x2="54" y2="54" stroke-width="1.05" />
    <line x1="34" y1="10" x2="54" y2="54" stroke-width="1.05" />
    <line x1="40" y1="10" x2="54" y2="54" stroke-width="1.05" />
    <line x1="46" y1="10" x2="54" y2="52" stroke-width="1.05" />
    <line x1="52" y1="10" x2="54" y2="46" stroke-width="1.05" />
    <line x1="58" y1="10" x2="54" y2="40" stroke-width="1.05" />
    <line x1="64" y1="10" x2="54" y2="34" stroke-width="1.05" />
    <line x1="70" y1="10" x2="54" y2="28" stroke-width="1.05" />
    <line x1="76" y1="10" x2="54" y2="22" stroke-width="1.05" />
    <line x1="10" y1="-9" x2="-9" y2="10" stroke-width="1.05" />
    <line x1="10" y1="-3" x2="-3" y2="10" stroke-width="1.05" />
    <line x1="10" y1="3" x2="3" y2="10" stroke-width="1.05" />
    <line x1="10" y1="9" x2="9" y2="10" stroke-width="1.05" />
    <line x1="10" y1="15" x2="15" y2="10" stroke-width="1.05" />
    <line x1="10" y1="21" x2="21" y2="10" stroke-width="1.05" />
    <line x1="10" y1="27" x2="27" y2="10" stroke-width="1.05" />
    <line x1="10" y1="33" x2="33" y2="10" stroke-width="1.05" />
    <line x1="10" y1="39" x2="39" y2="10" stroke-width="1.05" />
    <line x1="10" y1="45" x2="45" y2="10" stroke-width="1.05" />
    <line x1="10" y1="51" x2="51" y2="10" stroke-width="1.05" />
    <line x1="13" y1="54" x2="54" y2="13" stroke-width="1.05" />
    <line x1="19" y1="54" x2="54" y2="19" stroke-width="1.05" />
    <line x1="25" y1="54" x2="54" y2="25" stroke-width="1.05" />
    <line x1="31" y1="54" x2="54" y2="31" stroke-width="1.05" />
    <line x1="37" y1="54" x2="54" y2="37" stroke-width="1.05" />
    <line x1="43" y1="54" x2="54" y2="43" stroke-width="1.05" />
    <line x1="49" y1="54" x2="54" y2="49" stroke-width="1.05" />
    <line x1="16" y1="10" x2="16" y2="54" stroke-width="0.72" />
    <line x1="22" y1="10" x2="22" y2="54" stroke-width="0.72" />
    <line x1="28" y1="10" x2="28" y2="54" stroke-width="0.72" />
    <line x1="34" y1="10" x2="34" y2="54" stroke-width="0.72" />
    <line x1="40" y1="10" x2="40" y2="54" stroke-width="0.72" />
    <line x1="46" y1="10" x2="46" y2="54" stroke-width="0.72" />
    <line x1="52" y1="10" x2="52" y2="54" stroke-width="0.72" />
    <line x1="10" y1="16" x2="54" y2="16" stroke-width="0.72" />
    <line x1="10" y1="22" x2="54" y2="22" stroke-width="0.72" />
    <line x1="10" y1="28" x2="54" y2="28" stroke-width="0.72" />
    <line x1="10" y1="34" x2="54" y2="34" stroke-width="0.72" />
    <line x1="10" y1="40" x2="54" y2="40" stroke-width="0.72" />
    <line x1="10" y1="46" x2="54" y2="46" stroke-width="0.72" />
    <line x1="10" y1="52" x2="54" y2="52" stroke-width="0.72" />
  </g>
</svg>
