<svg xmlns="http://www.w3.org/2000/svg" width="64" height="64" viewBox="0 0 64 64">
  <title>lattice</title>
  <g fill="none" stroke="#FFFFFF" stroke-linecap="butt" stroke-linejoin="miter">
    <line x1="18" y1="72" x2="-8" y2="46" stroke-width="0.85" />
    <line x1="18" y1="61" x2="3" y2="46" stroke-width="0.85" />
    <line x1="18" y1="50" x2="14" y2="46" stroke-width="0.85" />
    <line x1="18" y1="39" x2="25" y2="46" stroke-width="0.85" />
    <line x1="18" y1="28" x2="36" y2="46" stroke-width="0.85" />
    <line x1="18" y1="18" x2="46" y2="46" stroke-width="0.85" />
    <line x1="22" y1="18" x2="46" y2="46" stroke-width="0.85" />
    <line x1="33" y1="18" x2="46" y2="46" stroke-width="0.85" />
    <line x1="44" y1="18" x2="46" y2="46" stroke-width="0.85" />
    <line x1="55" y1="18" x2="46" y2="43" stroke-width="0.85" />
    <line x1="66" y1="18" x2="46" y2="32" stroke-width="0.85" />
    <line x1="18" y1="-18" x2="-18" y2="18" stroke-width="0.85" />
    <line x1="18" y1="-7" x2="-7" y2="18" stroke-width="0.85" />
    <line x1="18" y1="4" x2="4" y2="18" stroke-width="0.85" />
    <line x1="18" y1="15" x2="15" y2="18" stroke-width="0.85" />
    <line x1="18" y1="26" x2="26" y2="18" stroke-width="0.85" />
    <line x1="18" y1="37" x2="37" y2="18" stroke-width="0.85" />
    <line x1="20" y1="46" x2="46" y2="20" stroke-width="0.85" />
    <line x1="31" y1="46" x2="46" y2="31" stroke-width="0.85" />
    <line x1="42" y1="46" x2="46" y2="42" stroke-width="0.85" />
    <line x1="53" y1="46" x2="46" y2="53" stroke-width="0.85" />
    <rect x="18" y="18" width="28" height="28" stroke-width="0.8" />
  </g>
</svg>
