<svg xmlns="http://www.w3.org/2000/svg" width="64" height="64" viewBox="0 0 64 64">
  <title>almost full</title>
  <g fill="none" stroke="#FFFFFF" stroke-linecap="butt" stroke-linejoin="miter">
    <rect x="8.8" y="8.8" width="2.7" height="2.7" fill="#FFFFFF" stroke="none" />
    <rect x="12" y="8" width="3.1" height="3.1" fill="#FFFFFF" stroke="none" />
    <rect x="16" y="8" width="3.1" height="3.1" fill="#FFFFFF" stroke="none" />
    <rect x="20" y="8" width="3.1" height="3.1" fill="#FFFFFF" stroke="none" />
    <rect x="24" y="8" width="3.1" height="3.1" fill="#FFFFFF" stroke="none" />
    <rect x="28" y="8" width="3.1" height="3.1" fill="#FFFFFF" stroke="none" />
    <rect x="32" y="8" width="3.1" height="3.1" fill="#FFFFFF" stroke="none" />
    <rect x="36.8" y="8.8" width="2.7" height="2.7" fill="#FFFFFF" stroke="none" />
    <rect x="40" y="8" width="3.1" height="3.1" fill="#FFFFFF" stroke="none" />
    <rect x="44" y="8" width="3.1" height="3.1" fill="#FFFFFF" stroke="none" />
    <rect x="48" y="8" width="3.1" height="3.1" fill="#FFFFFF" stroke="none" />
    <rect x="52" y="8" width="3.1" height="3.1" fill="#FFFFFF" stroke="none" />
    <rect x="8" y="12" width="3.1" height="3.1" fill="#FFFFFF" stroke="none" />
    <rect x="12" y="12" width="3.1" height="3.1" fill="#FFFFFF" stroke="none" />
    <rect x="16.8" y="12.8" width="2.7" height="2.7" fill="#FFFFFF" stroke="none" />
    <rect x="20" y="12" width="3.1" height="3.1" fill="#FFFFFF" stroke="none" />
    <rect x="24" y="12" width="3.1" height="3.1" fill="#FFFFFF" stroke="none" />
    <rect x="28" y="12" width="3.1" height="3.1" fill="#FFFFFF" stroke="none" />
    <rect x="32" y="12" width="3.1" height="3.1" fill="#FFFFFF" stroke="none" />
    <rect x="36" y="12" width="3.1" height="3.1" fill="#FFFFFF" stroke="none" />
    <rect x="40" y="12" width="3.1" height="3.1" fill="#FFFFFF" stroke="none" />
    <rect x="44.8" y="12.8" width="2.7" height="2.7" fill="#FFFFFF" stroke="none" />
    <rect x="48" y="12" width="3.1" height="3.1" fill="#FFFFFF" stroke="none" />
    <rect x="52" y="12" width="3.1" height="3.1" fill="#FFFFFF" stroke="none" />
    <rect x="8" y="16" width="3.1" height="3.1" fill="#FFFFFF" stroke="none" />
    <rect x="12" y="16" width="3.1" height="3.1" fill="#FFFFFF" stroke="none" />
    <rect x="16" y="16" width="3.1" height="3.1" fill="#FFFFFF" stroke="none" />
    <rect x="20" y="16" width="3.1" height="3.1" fill="#FFFFFF" stroke="none" />
    <rect x="24.8" y="16.8" width="2.7" height="2.7" fill="#FFFFFF" stroke="none" />
    <rect x="28" y="16" width="3.1" height="3.1" fill="#FFFFFF" stroke="none" />
    <rect x="32" y="16" width="3.1" height="3.1" fill="#FFFFFF" stroke="none" />
    <rect x="36" y="16" width="3.1" height="3.1" fill="#FFFFFF" stroke="none" />
    <rect x="40" y="16" width="3.1" height="3.1" fill="#FFFFFF" stroke="none" />
    <rect x="44" y="16" width="3.1" height="3.1" fill="#FFFFFF" stroke="none" />
    <rect x="48" y="16" width="3.1" height="3.1" fill="#FFFFFF" stroke="none" />
    <rect x="52.8" y="16.8" width="2.7" height="2.7" fill="#FFFFFF" stroke="none" />
    <rect x="8" y="20" width="3.1" height="3.1" fill="#FFFFFF" stroke="none" />
    <rect x="12" y="20" width="3.1" height="3.1" fill="#FFFFFF" stroke="none" />
    <rect x="16" y="20" width="3.1" height="3.1" fill="#FFFFFF" stroke="none" />
    <rect x="20" y="20" width="3.1" height="3.1" fill="#FFFFFF" stroke="none" />
    <rect x="24" y="20" width="3.1" height="3.1" fill="#FFFFFF" stroke="none" />
    <rect x="28" y="20" width="3.1" height="3.1" fill="#FFFFFF" stroke="none" />
    <rect x="32.8" y="20.8" width="2.7" height="2.7" fill="#FFFFFF" stroke="none" />
    <rect x="36" y="20" width="3.1" height="3.1" fill="#FFFFFF" stroke="none" />
    <rect x="40" y="20" width="3.1" height="3.1" fill="#FFFFFF" stroke="none" />
    <rect x="44" y="20" width="3.1" height="3.1" fill="#FFFFFF" stroke="none" />
    <rect x="48" y="20" width="3.1" height="3.1" fill="#FFFFFF" stroke="none" />
    <rect x="52" y="20" width="3.1" height="3.1" fill="#FFFFFF" stroke="none" />
    <rect x="8" y="24" width="3.1" height="3.1" fill="#FFFFFF" stroke="none" />
    <rect x="12.8" y="24.8" width="2.7" height="2.7" fill="#FFFFFF" stroke="none" />
    <rect x="16" y="24" width="3.1" height="3.1" fill="#FFFFFF" stroke="none" />
    <rect x="20" y="24" width="3.1" height="3.1" fill="#FFFFFF" stroke="none" />
    <rect x="24" y="24" width="3.1" height="3.1" fill="#FFFFFF" stroke="none" />
    <rect x="28" y="24" width="3.1" height="3.1" fill="#FFFFFF" stroke="none" />
    <rect x="32" y="24" width="3.1" height="3.1" fill="#FFFFFF" stroke="none" />
    <rect x="36" y="24" width="3.1" height="3.1" fill="#FFFFFF" stroke="none" />
    <rect x="40.8" y="24.8" width="2.7" height="2.7" fill="#FFFFFF" stroke="none" />
    <rect x="44" y="24" width="3.1" height="3.1" fill="#FFFFFF" stroke="none" />
    <rect x="48" y="24" width="3.1" height="3.1" fill="#FFFFFF" stroke="none" />
    <rect x="52" y="24" width="3.1" height="3.1" fill="#FFFFFF" stroke="none" />
    <rect x="8" y="28" width="3.1" height="3.1" fill="#FFFFFF" stroke="none" />
    <rect x="12" y="28" width="3.1" height="3.1" fill="#FFFFFF" stroke="none" />
    <rect x="16" y="28" width="3.1" height="3.1" fill="#FFFFFF" stroke="none" />
    <rect x="20.8" y="28.8" width="2.7" height="2.7" fill="#FFFFFF" stroke="none" />
    <rect x="24" y="28" width="3.1" height="3.1" fill="#FFFFFF" stroke="none" />
    <rect x="28" y="28" width="3.1" height="3.1" fill="#FFFFFF" stroke="none" />
    <rect x="32" y="28" width="3.1" height="3.1" fill="#FFFFFF" stroke="none" />
    <rect x="36" y="28" width="3.1" height="3.1" fill="#FFFFFF" stroke="none" />
    <rect x="40" y="28" width="3.1" height="3.1" fill="#FFFFFF" stroke="none" />
    <rect x="44" y="28" width="3.1" height="3.1" fill="#FFFFFF" stroke="none" />
    <rect x="48.8" y="28.8" width="2.7" height="2.7" fill="#FFFFFF" stroke="none" />
    <rect x="52" y="28" width="3.1" height="3.1" fill="#FFFFFF" stroke="none" />
    <rect x="8" y="32" width="3.1" height="3.1" fill="#FFFFFF" stroke="none" />
    <rect x="12" y="32" width="3.1" height="3.1" fill="#FFFFFF" stroke="none" />
    <rect x="16" y="32" width="3.1" height="3.1" fill="#FFFFFF" stroke="none" />
    <rect x="20" y="32" width="3.1" height="3.1" fill="#FFFFFF" stroke="none" />
    <rect x="24" y="32" width="3.1" height="3.1" fill="#FFFFFF" stroke="none" />
    <rect x="28.8" y="32.8" width="2.7" height="2.7" fill="#FFFFFF" stroke="none" />
    <rect x="32" y="32" width="3.1" height="3.1" fill="#FFFFFF" stroke="none" />
    <rect x="36" y="32" width="3.1" height="3.1" fill="#FFFFFF" stroke="none" />
    <rect x="40" y="32" width="3.1" height="3.1" fill="#FFFFFF" stroke="none" />
    <rect x="44" y="32" width="3.1" height="3.1" fill="#FFFFFF" stroke="none" />
    <rect x="48" y="32" width="3.1" height="3.1" fill="#FFFFFF" stroke="none" />
    <rect x="52" y="32" width="3.1" height="3.1" fill="#FFFFFF" stroke="none" />
    <rect x="8.8" y="36.8" width="2.7" height="2.7" fill="#FFFFFF" stroke="none" />
    <rect x="12" y="36" width="3.1" height="3.1" fill="#FFFFFF" stroke="none" />
    <rect x="16" y="36" width="3.1" height="3.1" fill="#FFFFFF" stroke="none" />
    <rect x="20" y="36" width="3.1" height="3.1" fill="#FFFFFF" stroke="none" />
    <rect x="24" y="36" width="3.1" height="3.1" fill="#FFFFFF" stroke="none" />
    <rect x="28" y="36" width="3.1" height="3.1" fill="#FFFFFF" stroke="none" />
    <rect x="32" y="36" width="3.1" height="3.1" fill="#FFFFFF" stroke="none" />
    <rect x="36.8" y="36.8" width="2.7" height="2.7" fill="#FFFFFF" stroke="none" />
    <rect x="40" y="36" width="3.1" height="3.1" fill="#FFFFFF" stroke="none" />
    <rect x="44" y="36" width="3.1" height="3.1" fill="#FFFFFF" stroke="none" />
    <rect x="48" y="36" width="3.1" height="3.1" fill="#FFFFFF" stroke="none" />
    <rect x="52" y="36" width="3.1" height="3.1" fill="#FFFFFF" stroke="none" />
    <rect x="8" y="40" width="3.1" height="3.1" fill="#FFFFFF" stroke="none" />
    <rect x="12" y="40" width="3.1" height="3.1" fill="#FFFFFF" stroke="none" />
    <rect x="16.8" y="40.8" width="2.7" height="2.7" fill="#FFFFFF" stroke="none" />
    <rect x="20" y="40" width="3.1" height="3.1" fill="#FFFFFF" stroke="none" />
    <rect x="24" y="40" width="3.1" height="3.1" fill="#FFFFFF" stroke="none" />
    <rect x="28" y="40" width="3.1" height="3.1" fill="#FFFFFF" stroke="none" />
    <rect x="32" y="40" width="3.1" height="3.1" fill="#FFFFFF" stroke="none" />
    <rect x="36" y="40" width="3.1" height="3.1" fill="#FFFFFF" stroke="none" />
    <rect x="40" y="40" width="3.1" height="3.1" fill="#FFFFFF" stroke="none" />
    <rect x="44.8" y="40.8" width="2.7" height="2.7" fill="#FFFFFF" stroke="none" />
    <rect x="48" y="40" width="3.1" height="3.1" fill="#FFFFFF" stroke="none" />
    <rect x="52" y="40" width="3.1" height="3.1" fill="#FFFFFF" stroke="none" />
    <rect x="8" y="44" width="3.1" height="3.1" fill="#FFFFFF" stroke="none" />
    <rect x="12" y="44" width="3.1" height="3.1" fill="#FFFFFF" stroke="none" />
    <rect x="16" y="44" width="3.1" height="3.1" fill="#FFFFFF" stroke="none" />
    <rect x="20" y="44" width="3.1" height="3.1" fill="#FFFFFF" stroke="none" />
    <rect x="24.8" y="44.8" width="2.7" height="2.7" fill="#FFFFFF" stroke="none" />
    <rect x="28" y="44" width="3.1" height="3.1" fill="#FFFFFF" stroke="none" />
    <rect x="32" y="44" width="3.1" height="3.1" fill="#FFFFFF" stroke="none" />
    <rect x="36" y="44" width="3.1" height="3.1" fill="#FFFFFF" stroke="none" />
    <rect x="40" y="44" width="3.1" height="3.1" fill="#FFFFFF" stroke="none" />
    <rect x="44" y="44" width="3.1" height="3.1" fill="#FFFFFF" stroke="none" />
    <rect x="48" y="44" width="3.1" height="3.1" fill="#FFFFFF" stroke="none" />
    <rect x="52.8" y="44.8" width="2.7" height="2.7" fill="#FFFFFF" stroke="none" />
    <rect x="8" y="48" width="3.1" height="3.1" fill="#FFFFFF" stroke="none" />
    <rect x="12" y="48" width="3.1" height="3.1" fill="#FFFFFF" stroke="none" />
    <rect x="16" y="48" width="3.1" height="3.1" fill="#FFFFFF" stroke="none" />
    <rect x="20" y="48" width="3.1" height="3.1" fill="#FFFFFF" stroke="none" />
    <rect x="24" y="48" width="3.1" height="3.1" fill="#FFFFFF" stroke="none" />
    <rect x="28" y="48" width="3.1" height="3.1" fill="#FFFFFF" stroke="none" />
    <rect x="32.8" y="48.8" width="2.7" height="2.7" fill="#FFFFFF" stroke="none" />
    <rect x="36" y="48" width="3.1" height="3.1" fill="#FFFFFF" stroke="none" />
    <rect x="40" y="48" width="3.1" height="3.1" fill="#FFFFFF" stroke="none" />
    <rect x="44" y="48" width="3.1" height="3.1" fill="#FFFFFF" stroke="none" />
    <rect x="48" y="48" width="3.1" height="3.1" fill="#FFFFFF" stroke="none" />
    <rect x="52" y="48" width="3.1" height="3.1" fill="#FFFFFF" stroke="none" />
    <rect x="8" y="52" width="3.1" height="3.1" fill="#FFFFFF" stroke="none" />
    <rect x="12.8" y="52.8" width="2.7" height="2.7" fill="#FFFFFF" stroke="none" />
    <rect x="16" y="52" width="3.1" height="3.1" fill="#FFFFFF" stroke="none" />
    <rect x="20" y="52" width="3.1" height="3.1" fill="#FFFFFF" stroke="none" />
    <rect x="24" y="52" width="3.1" height="3.1" fill="#FFFFFF" stroke="none" />
    <rect x="28" y="52" width="3.1" height="3.1" fill="#FFFFFF" stroke="none" />
    <rect x="32" y="52" width="3.1" height="3.1" fill="#FFFFFF" stroke="none" />
    <rect x="36" y="52" width="3.1" height="3.1" fill="#FFFFFF" stroke="none" />
    <rect x="40.8" y="52.8" width="2.7" height="2.7" fill="#FFFFFF" stroke="none" />
    <rect x="44" y="52" width="3.1" height="3.1" fill="#FFFFFF" stroke="none" />
    <rect x="48" y="52" width="3.1" height="3.1" fill="#FFFFFF" stroke="none" />
    <rect x="52" y="52" width="3.1" height="3.1" fill="#FFFFFF" stroke="none" />
  </g>
</svg>
