<svg xmlns="http://www.w3.org/2000/svg" width="64" height="64" viewBox="0 0 64 64">
  <title>near solid</title>
  <g fill="none" stroke="#FFFFFF" stroke-linecap="butt" stroke-linejoin="miter">
    <rect x="12.6" y="8.6" width="2.8" height="2.8" fill="#FFFFFF" stroke="none" />
    <rect x="16.6" y="8.6" width="2.8" height="2.8" fill="#FFFFFF" stroke="none" />
    <rect x="20.6" y="8.6" width="2.8" height="2.8" fill="#FFFFFF" stroke="none" />
    <rect x="24.6" y="8.6" width="2.8" height="2.8" fill="#FFFFFF" stroke="none" />
    <rect x="28.6" y="8.6" width="2.8" height="2.8" fill="#FFFFFF" stroke="none" />
    <rect x="32.6" y="8.6" width="2.8" height="2.8" fill="#FFFFFF" stroke="none" />
    <rect x="40.6" y="8.6" width="2.8" height="2.8" fill="#FFFFFF" stroke="none" />
    <rect x="44.6" y="8.6" width="2.8" height="2.8" fill="#FFFFFF" stroke="none" />
    <rect x="48.6" y="8.6" width="2.8" height="2.8" fill="#FFFFFF" stroke="none" />
    <rect x="52.6" y="8.6" width="2.8" height="2.8" fill="#FFFFFF" stroke="none" />
    <rect x="8.6" y="12.6" width="2.8" height="2.8" fill="#FFFFFF" stroke="none" />
    <rect x="12.6" y="12.6" width="2.8" height="2.8" fill="#FFFFFF" stroke="none" />
    <rect x="16.6" y="12.6" width="2.8" height="2.8" fill="#FFFFFF" stroke="none" />
    <rect x="20.6" y="12.6" width="2.8" height="2.8" fill="#FFFFFF" stroke="none" />
    <rect x="24.6" y="12.6" width="2.8" height="2.8" fill="#FFFFFF" stroke="none" />
    <rect x="32.6" y="12.6" width="2.8" height="2.8" fill="#FFFFFF" stroke="none" />
    <rect x="36.6" y="12.6" width="2.8" height="2.8" fill="#FFFFFF" stroke="none" />
    <rect x="40.6" y="12.6" width="2.8" height="2.8" fill="#FFFFFF" stroke="none" />
    <rect x="44.6" y="12.6" width="2.8" height="2.8" fill="#FFFFFF" stroke="none" />
    <rect x="48.6" y="12.6" width="2.8" height="2.8" fill="#FFFFFF" stroke="none" />
    <rect x="52.6" y="12.6" width="2.8" height="2.8" fill="#FFFFFF" stroke="none" />
    <rect x="8.6" y="16.6" width="2.8" height="2.8" fill="#FFFFFF" stroke="none" />
    <rect x="12.6" y="16.6" width="2.8" height="2.8" fill="#FFFFFF" stroke="none" />
    <rect x="16.6" y="16.6" width="2.8" height="2.8" fill="#FFFFFF" stroke="none" />
    <rect x="24.6" y="16.6" width="2.8" height="2.8" fill="#FFFFFF" stroke="none" />
    <rect x="28.6" y="16.6" width="2.8" height="2.8" fill="#FFFFFF" stroke="none" />
    <rect x="32.6" y="16.6" width="2.8" height="2.8" fill="#FFFFFF" stroke="none" />
    <rect x="36.6" y="16.6" width="2.8" height="2.8" fill="#FFFFFF" stroke="none" />
    <rect x="40.6" y="16.6" width="2.8" height="2.8" fill="#FFFFFF" stroke="none" />
    <rect x="44.6" y="16.6" width="2.8" height="2.8" fill="#FFFFFF" stroke="none" />
    <rect x="52.6" y="16.6" width="2.8" height="2.8" fill="#FFFFFF" stroke="none" />
    <rect x="8.6" y="20.6" width="2.8" height="2.8" fill="#FFFFFF" stroke="none" />
    <rect x="16.6" y="20.6" width="2.8" height="2.8" fill="#FFFFFF" stroke="none" />
    <rect x="20.6" y="20.6" width="2.8" height="2.8" fill="#FFFFFF" stroke="none" />
    <rect x="24.6" y="20.6" width="2.8" height="2.8" fill="#FFFFFF" stroke="none" />
    <rect x="28.6" y="20.6" width="2.8" height="2.8" fill="#FFFFFF" stroke="none" />
    <rect x="32.6" y="20.6" width="2.8" height="2.8" fill="#FFFFFF" stroke="none" />
    <rect x="36.6" y="20.6" width="2.8" height="2.8" fill="#FFFFFF" stroke="none" />
    <rect x="44.6" y="20.6" width="2.8" height="2.8" fill="#FFFFFF" stroke="none" />
    <rect x="48.6" y="20.6" width="2.8" height="2.8" fill="#FFFFFF" stroke="none" />
    <rect x="52.6" y="20.6" width="2.8" height="2.8" fill="#FFFFFF" stroke="none" />
    <rect x="8.6" y="24.6" width="2.8" height="2.8" fill="#FFFFFF" stroke="none" />
    <rect x="12.6" y="24.6" width="2.8" height="2.8" fill="#FFFFFF" stroke="none" />
    <rect x="16.6" y="24.6" width="2.8" height="2.8" fill="#FFFFFF" stroke="none" />
    <rect x="20.6" y="24.6" width="2.8" height="2.8" fill="#FFFFFF" stroke="none" />
    <rect x="24.6" y="24.6" width="2.8" height="2.8" fill="#FFFFFF" stroke="none" />
    <rect x="28.6" y="24.6" width="2.8" height="2.8" fill="#FFFFFF" stroke="none" />
    <rect x="36.6" y="24.6" width="2.8" height="2.8" fill="#FFFFFF" stroke="none" />
    <rect x="40.6" y="24.6" width="2.8" height="2.8" fill="#FFFFFF" stroke="none" />
    <rect x="44.6" y="24.6" width="2.8" height="2.8" fill="#FFFFFF" stroke="none" />
    <rect x="48.6" y="24.6" width="2.8" height="2.8" fill="#FFFFFF" stroke="none" />
    <rect x="52.6" y="24.6" width="2.8" height="2.8" fill="#FFFFFF" stroke="none" />
    <rect x="8.6" y="28.6" width="2.8" height="2.8" fill="#FFFFFF" stroke="none" />
    <rect x="12.6" y="28.6" width="2.8" height="2.8" fill="#FFFFFF" stroke="none" />
    <rect x="16.6" y="28.6" width="2.8" height="2.8" fill="#FFFFFF" stroke="none" />
    <rect x="20.6" y="28.6" width="2.8" height="2.8" fill="#FFFFFF" stroke="none" />
    <rect x="28.6" y="28.6" width="2.8" height="2.8" fill="#FFFFFF" stroke="none" />
    <rect x="32.6" y="28.6" width="2.8" height="2.8" fill="#FFFFFF" stroke="none" />
    <rect x="36.6" y="28.6" width="2.8" height="2.8" fill="#FFFFFF" stroke="none" />
    <rect x="40.6" y="28.6" width="2.8" height="2.8" fill="#FFFFFF" stroke="none" />
    <rect x="44.6" y="28.6" width="2.8" height="2.8" fill="#FFFFFF" stroke="none" />
    <rect x="48.6" y="28.6" width="2.8" height="2.8" fill="#FFFFFF" stroke="none" />
    <rect x="8.6" y="32.6" width="2.8" height="2.8" fill="#FFFFFF" stroke="none" />
    <rect x="12.6" y="32.6" width="2.8" height="2.8" fill="#FFFFFF" stroke="none" />
    <rect x="20.6" y="32.6" width="2.8" height="2.8" fill="#FFFFFF" stroke="none" />
    <rect x="24.6" y="32.6" width="2.8" height="2.8" fill="#FFFFFF" stroke="none" />
    <rect x="28.6" y="32.6" width="2.8" height="2.8" fill="#FFFFFF" stroke="none" />
    <rect x="32.6" y="32.6" width="2.8" height="2.8" fill="#FFFFFF" stroke="none" />
    <rect x="36.6" y="32.6" width="2.8" height="2.8" fill="#FFFFFF" stroke="none" />
    <rect x="40.6" y="32.6" width="2.8" height="2.8" fill="#FFFFFF" stroke="none" />
    <rect x="48.6" y="32.6" width="2.8" height="2.8" fill="#FFFFFF" stroke="none" />
    <rect x="52.6" y="32.6" width="2.8" height="2.8" fill="#FFFFFF" stroke="none" />
    <rect x="12.6" y="36.6" width="2.8" height="2.8" fill="#FFFFFF" stroke="none" />
    <rect x="16.6" y="36.6" width="2.8" height="2.8" fill="#FFFFFF" stroke="none" />
    <rect x="20.6" y="36.6" width="2.8" height="2.8" fill="#FFFFFF" stroke="none" />
    <rect x="24.6" y="36.6" width="2.8" height="2.8" fill="#FFFFFF" stroke="none" />
    <rect x="28.6" y="36.6" width="2.8" height="2.8" fill="#FFFFFF" stroke="none" />
    <rect x="32.6" y="36.6" width="2.8" height="2.8" fill="#FFFFFF" stroke="none" />
    <rect x="40.6" y="36.6" width="2.8" height="2.8" fill="#FFFFFF" stroke="none" />
    <rect x="44.6" y="36.6" width="2.8" height="2.8" fill="#FFFFFF" stroke="none" />
    <rect x="48.6" y="36.6" width="2.8" height="2.8" fill="#FFFFFF" stroke="none" />
    <rect x="52.6" y="36.6" width="2.8" height="2.8" fill="#FFFFFF" stroke="none" />
    <rect x="8.6" y="40.6" width="2.8" height="2.8" fill="#FFFFFF" stroke="none" />
    <rect x="12.6" y="40.6" width="2.8" height="2.8" fill="#FFFFFF" stroke="none" />
    <rect x="16.6" y="40.6" width="2.8" height="2.8" fill="#FFFFFF" stroke="none" />
    <rect x="20.6" y="40.6" width="2.8" height="2.8" fill="#FFFFFF" stroke="none" />
    <rect x="24.6" y="40.6" width="2.8" height="2.8" fill="#FFFFFF" stroke="none" />
    <rect x="32.6" y="40.6" width="2.8" height="2.8" fill="#FFFFFF" stroke="none" />
    <rect x="36.6" y="40.6" width="2.8" height="2.8" fill="#FFFFFF" stroke="none" />
    <rect x="40.6" y="40.6" width="2.8" height="2.8" fill="#FFFFFF" stroke="none" />
    <rect x="44.6" y="40.6" width="2.8" height="2.8" fill="#FFFFFF" stroke="none" />
    <rect x="48.6" y="40.6" width="2.8" height="2.8" fill="#FFFFFF" stroke="none" />
    <rect x="52.6" y="40.6" width="2.8" height="2.8" fill="#FFFFFF" stroke="none" />
    <rect x="8.6" y="44.6" width="2.8" height="2.8" fill="#FFFFFF" stroke="none" />
    <rect x="12.6" y="44.6" width="2.8" height="2.8" fill="#FFFFFF" stroke="none" />
    <rect x="16.6" y="44.6" width="2.8" height="2.8" fill="#FFFFFF" stroke="none" />
    <rect x="24.6" y="44.6" width="2.8" height="2.8" fill="#FFFFFF" stroke="none" />
    <rect x="28.6" y="44.6" width="2.8" height="2.8" fill="#FFFFFF" stroke="none" />
    <rect x="32.6" y="44.6" width="2.8" height="2.8" fill="#FFFFFF" stroke="none" />
    <rect x="36.6" y="44.6" width="2.8" height="2.8" fill="#FFFFFF" stroke="none" />
    <rect x="40.6" y="44.6" width="2.8" height="2.8" fill="#FFFFFF" stroke="none" />
    <rect x="44.6" y="44.6" width="2.8" height="2.8" fill="#FFFFFF" stroke="none" />
    <rect x="52.6" y="44.6" width="2.8" height="2.8" fill="#FFFFFF" stroke="none" />
    <rect x="8.6" y="48.6" width="2.8" height="2.8" fill="#FFFFFF" stroke="none" />
    <rect x="16.6" y="48.6" width="2.8" height="2.8" fill="#FFFFFF" stroke="none" />
    <rect x="20.6" y="48.6" width="2.8" height="2.8" fill="#FFFFFF" stroke="none" />
    <rect x="24.6" y="48.6" width="2.8" height="2.8" fill="#FFFFFF" stroke="none" />
    <rect x="28.6" y="48.6" width="2.8" height="2.8" fill="#FFFFFF" stroke="none" />
    <rect x="32.6" y="48.6" width="2.8" height="2.8" fill="#FFFFFF" stroke="none" />
    <rect x="36.6" y="48.6" width="2.8" height="2.8" fill="#FFFFFF" stroke="none" />
    <rect x="44.6" y="48.6" width="2.8" height="2.8" fill="#FFFFFF" stroke="none" />
    <rect x="48.6" y="48.6" width="2.8" height="2.8" fill="#FFFFFF" stroke="none" />
    <rect x="52.6" y="48.6" width="2.8" height="2.8" fill="#FFFFFF" stroke="none" />
    <rect x="8.6" y="52.6" width="2.8" height="2.8" fill="#FFFFFF" stroke="none" />
    <rect x="12.6" y="52.6" width="2.8" height="2.8" fill="#FFFFFF" stroke="none" />
    <rect x="16.6" y="52.6" width="2.8" height="2.8" fill="#FFFFFF" stroke="none" />
    <rect x="20.6" y="52.6" width="2.8" height="2.8" fill="#FFFFFF" stroke="none" />
    <rect x="24.6" y="52.6" width="2.8" height="2.8" fill="#FFFFFF" stroke="none" />
    <rect x="28.6" y="52.6" width="2.8" height="2.8" fill="#FFFFFF" stroke="none" />
    <rect x="36.6" y="52.6" width="2.8" height="2.8" fill="#FFFFFF" stroke="none" />
    <rect x="40.6" y="52.6" width="2.8" height="2.8" fill="#FFFFFF" stroke="none" />
    <rect x="44.6" y="52.6" width="2.8" height="2.8" fill="#FFFFFF" stroke="none" />
    <rect x="48.6" y="52.6" width="2.8" height="2.8" fill="#FFFFFF" stroke="none" />
    <rect x="52.6" y="52.6" width="2.8" height="2.8" fill="#FFFFFF" stroke="none" />
    <line x1="8" y1="62" x2="2" y2="56" stroke-width="0.8" />
    <line x1="8" y1="54" x2="10" y2="56" stroke-width="0.8" />
    <line x1="8" y1="46" x2="18" y2="56" stroke-width="0.8" />
    <line x1="8" y1="38" x2="26" y2="56" stroke-width="0.8" />
    <line x1="8" y1="30" x2="34" y2="56" stroke-width="0.8" />
    <line x1="8" y1="22" x2="42" y2="56" stroke-width="0.8" />
    <line x1="8" y1="14" x2="50" y2="56" stroke-width="0.8" />
    <line x1="12" y1="8" x2="56" y2="56" stroke-width="0.8" />
    <line x1="20" y1="8" x2="56" y2="56" stroke-width="0.8" />
    <line x1="28" y1="8" x2="56" y2="56" stroke-width="0.8" />
    <line x1="36" y1="8" x2="56" y2="56" stroke-width="0.8" />
    <line x1="44" y1="8" x2="56" y2="54" stroke-width="0.8" />
    <line x1="52" y1="8" x2="56" y2="46" stroke-width="0.8" />
    <line x1="60" y1="8" x2="56" y2="38" stroke-width="0.8" />
    <line x1="68" y1="8" x2="56" y2="30" stroke-width="0.8" />
    <line x1="76" y1="8" x2="56" y2="22" stroke-width="0.8" />
    <line x1="8" y1="-7" x2="-7" y2="8" stroke-width="0.8" />
    <line x1="8" y1="1" x2="1" y2="8" stroke-width="0.8" />
    <line x1="8" y1="9" x2="9" y2="8" stroke-width="0.8" />
    <line x1="8" y1="17" x2="17" y2="8" stroke-width="0.8" />
    <line x1="8" y1="25" x2="25" y2="8" stroke-width="0.8" />
    <line x1="8" y1="33" x2="33" y2="8" stroke-width="0.8" />
    <line x1="8" y1="41" x2="41" y2="8" stroke-width="0.8" />
    <line x1="8" y1="49" x2="49" y2="8" stroke-width="0.8" />
    <line x1="9" y1="56" x2="56" y2="9" stroke-width="0.8" />
    <line x1="17" y1="56" x2="56" y2="17" stroke-width="0.8" />
    <line x1="25" y1="56" x2="56" y2="25" stroke-width="0.8" />
    <line x1="33" y1="56" x2="56" y2="33" stroke-width="0.8" />
    <line x1="41" y1="56" x2="56" y2="41" stroke-width="0.8" />
    <line x1="49" y1="56" x2="56" y2="49" stroke-width="0.8" />
  </g>
</svg>
