<svg xmlns="http://www.w3.org/2000/svg" width="64" height="64" viewBox="0 0 64 64" shape-rendering="crispEdges">
  <g fill="#FFFFFF">
    <rect x="24" y="0" width="4" height="4" />
    <rect x="40" y="0" width="4" height="4" />
    <rect x="16" y="4" width="4" height="4" />
    <rect x="36" y="4" width="4" height="4" />
    <rect x="28" y="8" width="4" height="4" />
    <rect x="36" y="12" width="8" height="4" />
    <rect x="24" y="16" width="4" height="4" />
    <rect x="32" y="16" width="4" height="4" />
    <rect x="48" y="16" width="4" height="4" />
    <rect x="12" y="20" width="4" height="4" />
    <rect x="40" y="20" width="4" height="4" />
    <rect x="12" y="24" width="4" height="4" />
    <rect x="4" y="28" width="4" height="4" />
    <rect x="48" y="32" width="4" height="4" />
    <rect x="4" y="40" width="8" height="4" />
    <rect x="12" y="44" width="4" height="4" />
    <rect x="36" y="44" width="4" height="4" />
    <rect x="44" y="44" width="4" height="4" />
    <rect x="52" y="44" width="4" height="4" />
    <rect x="40" y="48" width="4" height="4" />
    <rect x="28" y="52" width="4" height="4" />
  </g>
</svg>
