<svg xmlns="http://www.w3.org/2000/svg" width="64" height="64" viewBox="0 0 64 64" shape-rendering="crispEdges">
  <g fill="#FFFFFF">
    <rect x="20" y="4" width="24" height="4" />
    <rect x="12" y="8" width="40" height="4" />
    <rect x="8" y="12" width="16" height="4" />
    <rect x="44" y="12" width="8" height="4" />
    <rect x="8" y="16" width="8" height="4" />
    <rect x="48" y="16" width="8" height="4" />
    <rect x="4" y="20" width="8" height="4" />
    <rect x="52" y="20" width="8" height="4" />
    <rect x="4" y="24" width="8" height="4" />
    <rect x="52" y="24" width="8" height="4" />
    <rect x="4" y="28" width="8" height="4" />
    <rect x="52" y="28" width="8" height="4" />
    <rect x="0" y="32" width="12" height="4" />
    <rect x="52" y="32" width="8" height="4" />
    <rect x="4" y="36" width="8" height="4" />
    <rect x="52" y="36" width="8" height="4" />
    <rect x="4" y="40" width="8" height="4" />
    <rect x="52" y="40" width="8" height="4" />
    <rect x="8" y="44" width="8" height="4" />
    <rect x="48" y="44" width="8" height="4" />
    <rect x="8" y="48" width="12" height="4" />
    <rect x="44" y="48" width="12" height="4" />
    <rect x="12" y="52" width="40" height="4" />
    <rect x="20" y="56" width="24" height="4" />
  </g>
</svg>
