<svg xmlns="http://www.w3.org/2000/svg" width="64" height="64" viewBox="0 0 64 64">
  <title>micro lattice</title>
  <g fill="none" stroke="#FFFFFF" stroke-linecap="butt" stroke-linejoin="miter">
    <rect x="8" y="8" width="48" height="48" stroke-width="1.2" />
    <line x1="16" y1="8" x2="16" y2="56" stroke-width="0.9" />
    <line x1="24" y1="8" x2="24" y2="56" stroke-width="0.9" />
    <line x1="32" y1="8" x2="32" y2="56" stroke-width="0.9" />
    <line x1="40" y1="8" x2="40" y2="56" stroke-width="0.9" />
    <line x1="48" y1="8" x2="48" y2="56" stroke-width="0.9" />
    <line x1="8" y1="16" x2="56" y2="16" stroke-width="0.9" />
    <line x1="8" y1="24" x2="56" y2="24" stroke-width="0.9" />
    <line x1="8" y1="32" x2="56" y2="32" stroke-width="0.9" />
    <line x1="8" y1="40" x2="56" y2="40" stroke-width="0.9" />
    <line x1="8" y1="48" x2="56" y2="48" stroke-width="0.9" />
    <line x1="8" y1="56" x2="8" y2="56" stroke-width="0.9" />
    <line x1="8" y1="40" x2="24" y2="56" stroke-width="0.9" />
    <line x1="8" y1="24" x2="40" y2="56" stroke-width="0.9" />
    <line x1="8" y1="8" x2="56" y2="56" stroke-width="0.9" />
    <line x1="16" y1="8" x2="56" y2="56" stroke-width="0.9" />
    <line x1="32" y1="8" x2="56" y2="56" stroke-width="0.9" />
    <line x1="48" y1="8" x2="56" y2="56" stroke-width="0.9" />
    <line x1="64" y1="8" x2="56" y2="40" stroke-width="0.9" />
    <line x1="80" y1="8" x2="56" y2="24" stroke-width="0.9" />
  </g>
</svg>
