<svg xmlns="http://www.w3.org/2000/svg" width="64" height="64" viewBox="0 0 64 64">
  <title>panel pattern plus center</title>
  <g fill="none" stroke="#FFFFFF" stroke-linecap="butt" stroke-linejoin="miter">
    <rect x="6" y="6" width="52" height="52" stroke-width="1.5" />
    <line x1="14" y1="6" x2="14" y2="58" stroke-width="1" />
    <line x1="24" y1="6" x2="24" y2="58" stroke-width="1" />
    <line x1="32" y1="6" x2="32" y2="58" stroke-width="1" />
    <line x1="40" y1="6" x2="40" y2="58" stroke-width="1" />
    <line x1="50" y1="6" x2="50" y2="58" stroke-width="1" />
    <line x1="6" y1="14" x2="58" y2="14" stroke-width="1" />
    <line x1="6" y1="24" x2="58" y2="24" stroke-width="1" />
    <line x1="6" y1="32" x2="58" y2="32" stroke-width="1" />
    <line x1="6" y1="40" x2="58" y2="40" stroke-width="1" />
    <line x1="6" y1="50" x2="58" y2="50" stroke-width="1" />
    <rect x="26" y="26" width="12" height="12" fill="#FFFFFF" stroke="none" />
    <circle cx="18" cy="18" r="3" stroke-width="1.2" />
    <circle cx="46" cy="18" r="3" stroke-width="1.2" />
    <circle cx="18" cy="46" r="3" stroke-width="1.2" />
    <circle cx="46" cy="46" r="3" stroke-width="1.2" />
    <line x1="8" y1="52" x2="12" y2="56" stroke-width="0.9" />
    <line x1="8" y1="32" x2="32" y2="56" stroke-width="0.9" />
    <line x1="8" y1="12" x2="52" y2="56" stroke-width="0.9" />
    <line x1="16" y1="8" x2="56" y2="56" stroke-width="0.9" />
    <line x1="36" y1="8" x2="56" y2="56" stroke-width="0.9" />
    <line x1="56" y1="8" x2="56" y2="48" stroke-width="0.9" />
    <line x1="76" y1="8" x2="56" y2="28" stroke-width="0.9" />
  </g>
</svg>
