<svg xmlns="http://www.w3.org/2000/svg" width="64" height="64" viewBox="0 0 64 64">
  <title>nested square grid</title>
  <g fill="none" stroke="#FFFFFF" stroke-linecap="butt" stroke-linejoin="miter">
    <rect x="5" y="5" width="54" height="54" stroke-width="1.5" />
    <rect x="13" y="13" width="38" height="38" stroke-width="1.25" />
    <rect x="21" y="21" width="22" height="22" stroke-width="1.15" />
    <line x1="11" y1="5" x2="11" y2="59" stroke-width="0.9" />
    <line x1="18" y1="5" x2="18" y2="59" stroke-width="0.9" />
    <line x1="25" y1="5" x2="25" y2="59" stroke-width="0.9" />
    <line x1="32" y1="5" x2="32" y2="59" stroke-width="0.9" />
    <line x1="39" y1="5" x2="39" y2="59" stroke-width="0.9" />
    <line x1="46" y1="5" x2="46" y2="59" stroke-width="0.9" />
    <line x1="53" y1="5" x2="53" y2="59" stroke-width="0.9" />
    <line x1="5" y1="11" x2="59" y2="11" stroke-width="0.9" />
    <line x1="5" y1="18" x2="59" y2="18" stroke-width="0.9" />
    <line x1="5" y1="25" x2="59" y2="25" stroke-width="0.9" />
    <line x1="5" y1="32" x2="59" y2="32" stroke-width="0.9" />
    <line x1="5" y1="39" x2="59" y2="39" stroke-width="0.9" />
    <line x1="5" y1="46" x2="59" y2="46" stroke-width="0.9" />
    <line x1="5" y1="53" x2="59" y2="53" stroke-width="0.9" />
    <circle cx="14" cy="14" r="1.4" fill="#FFFFFF" stroke="none" />
    <circle cx="50" cy="14" r="1.4" fill="#FFFFFF" stroke="none" />
    <circle cx="14" cy="50" r="1.4" fill="#FFFFFF" stroke="none" />
    <circle cx="50" cy="50" r="1.4" fill="#FFFFFF" stroke="none" />
    <circle cx="32" cy="32" r="1.4" fill="#FFFFFF" stroke="none" />
  </g>
</svg>
