<svg xmlns="http://www.w3.org/2000/svg" width="64" height="64" viewBox="0 0 64 64">
  <title>dense weave</title>
  <g fill="none" stroke="#FFFFFF" stroke-linecap="butt" stroke-linejoin="miter">
    <line x1="12" y1="66" x2="-2" y2="52" stroke-width="0.95" />
    <line x1="12" y1="59" x2="5" y2="52" stroke-width="0.95" />
    <line x1="12" y1="52" x2="12" y2="52" stroke-width="0.95" />
    <line x1="12" y1="45" x2="19" y2="52" stroke-width="0.95" />
    <line x1="12" y1="38" x2="26" y2="52" stroke-width="0.95" />
    <line x1="12" y1="31" x2="33" y2="52" stroke-width="0.95" />
    <line x1="12" y1="24" x2="40" y2="52" stroke-width="0.95" />
    <line x1="12" y1="17" x2="47" y2="52" stroke-width="0.95" />
    <line x1="12" y1="12" x2="52" y2="52" stroke-width="0.95" />
    <line x1="19" y1="12" x2="52" y2="52" stroke-width="0.95" />
    <line x1="26" y1="12" x2="52" y2="52" stroke-width="0.95" />
    <line x1="33" y1="12" x2="52" y2="52" stroke-width="0.95" />
    <line x1="40" y1="12" x2="52" y2="52" stroke-width="0.95" />
    <line x1="47" y1="12" x2="52" y2="51" stroke-width="0.95" />
    <line x1="54" y1="12" x2="52" y2="44" stroke-width="0.95" />
    <line x1="61" y1="12" x2="52" y2="37" stroke-width="0.95" />
    <line x1="68" y1="12" x2="52" y2="30" stroke-width="0.95" />
    <line x1="75" y1="12" x2="52" y2="23" stroke-width="0.95" />
    <line x1="12" y1="-11" x2="-11" y2="12" stroke-width="0.95" />
    <line x1="12" y1="-4" x2="-4" y2="12" stroke-width="0.95" />
    <line x1="12" y1="3" x2="3" y2="12" stroke-width="0.95" />
    <line x1="12" y1="10" x2="10" y2="12" stroke-width="0.95" />
    <line x1="12" y1="17" x2="17" y2="12" stroke-width="0.95" />
    <line x1="12" y1="24" x2="24" y2="12" stroke-width="0.95" />
    <line x1="12" y1="31" x2="31" y2="12" stroke-width="0.95" />
    <line x1="12" y1="38" x2="38" y2="12" stroke-width="0.95" />
    <line x1="12" y1="45" x2="45" y2="12" stroke-width="0.95" />
    <line x1="12" y1="52" x2="52" y2="12" stroke-width="0.95" />
    <line x1="19" y1="52" x2="52" y2="19" stroke-width="0.95" />
    <line x1="26" y1="52" x2="52" y2="26" stroke-width="0.95" />
    <line x1="33" y1="52" x2="52" y2="33" stroke-width="0.95" />
    <line x1="40" y1="52" x2="52" y2="40" stroke-width="0.95" />
    <line x1="47" y1="52" x2="52" y2="47" stroke-width="0.95" />
    <line x1="54" y1="52" x2="52" y2="54" stroke-width="0.95" />
    <line x1="18" y1="12" x2="18" y2="52" stroke-width="0.68" />
    <line x1="24" y1="12" x2="24" y2="52" stroke-width="0.68" />
    <line x1="30" y1="12" x2="30" y2="52" stroke-width="0.68" />
    <line x1="36" y1="12" x2="36" y2="52" stroke-width="0.68" />
    <line x1="42" y1="12" x2="42" y2="52" stroke-width="0.68" />
    <line x1="48" y1="12" x2="48" y2="52" stroke-width="0.68" />
    <line x1="12" y1="18" x2="52" y2="18" stroke-width="0.68" />
    <line x1="12" y1="24" x2="52" y2="24" stroke-width="0.68" />
    <line x1="12" y1="30" x2="52" y2="30" stroke-width="0.68" />
    <line x1="12" y1="36" x2="52" y2="36" stroke-width="0.68" />
    <line x1="12" y1="42" x2="52" y2="42" stroke-width="0.68" />
    <line x1="12" y1="48" x2="52" y2="48" stroke-width="0.68" />
  </g>
</svg>
