<svg xmlns="http://www.w3.org/2000/svg" width="64" height="64" viewBox="0 0 64 64">
  <title>weave plus center</title>
  <g fill="none" stroke="#FFFFFF" stroke-linecap="butt" stroke-linejoin="miter">
    <line x1="14" y1="68" x2="-4" y2="50" stroke-width="0.9" />
    <line x1="14" y1="60" x2="4" y2="50" stroke-width="0.9" />
    <line x1="14" y1="52" x2="12" y2="50" stroke-width="0.9" />
    <line x1="14" y1="44" x2="20" y2="50" stroke-width="0.9" />
    <line x1="14" y1="36" x2="28" y2="50" stroke-width="0.9" />
    <line x1="14" y1="28" x2="36" y2="50" stroke-width="0.9" />
    <line x1="14" y1="20" x2="44" y2="50" stroke-width="0.9" />
    <line x1="14" y1="14" x2="50" y2="50" stroke-width="0.9" />
    <line x1="20" y1="14" x2="50" y2="50" stroke-width="0.9" />
    <line x1="28" y1="14" x2="50" y2="50" stroke-width="0.9" />
    <line x1="36" y1="14" x2="50" y2="50" stroke-width="0.9" />
    <line x1="44" y1="14" x2="50" y2="50" stroke-width="0.9" />
    <line x1="52" y1="14" x2="50" y2="46" stroke-width="0.9" />
    <line x1="60" y1="14" x2="50" y2="38" stroke-width="0.9" />
    <line x1="68" y1="14" x2="50" y2="30" stroke-width="0.9" />
    <line x1="76" y1="14" x2="50" y2="22" stroke-width="0.9" />
    <line x1="14" y1="-13" x2="-13" y2="14" stroke-width="0.9" />
    <line x1="14" y1="-5" x2="-5" y2="14" stroke-width="0.9" />
    <line x1="14" y1="3" x2="3" y2="14" stroke-width="0.9" />
    <line x1="14" y1="11" x2="11" y2="14" stroke-width="0.9" />
    <line x1="14" y1="19" x2="19" y2="14" stroke-width="0.9" />
    <line x1="14" y1="27" x2="27" y2="14" stroke-width="0.9" />
    <line x1="14" y1="35" x2="35" y2="14" stroke-width="0.9" />
    <line x1="14" y1="43" x2="43" y2="14" stroke-width="0.9" />
    <line x1="15" y1="50" x2="50" y2="15" stroke-width="0.9" />
    <line x1="23" y1="50" x2="50" y2="23" stroke-width="0.9" />
    <line x1="31" y1="50" x2="50" y2="31" stroke-width="0.9" />
    <line x1="39" y1="50" x2="50" y2="39" stroke-width="0.9" />
    <line x1="47" y1="50" x2="50" y2="47" stroke-width="0.9" />
    <line x1="55" y1="50" x2="50" y2="55" stroke-width="0.9" />
    <line x1="20" y1="14" x2="20" y2="50" stroke-width="0.65" />
    <line x1="28" y1="14" x2="28" y2="50" stroke-width="0.65" />
    <line x1="36" y1="14" x2="36" y2="50" stroke-width="0.65" />
    <line x1="44" y1="14" x2="44" y2="50" stroke-width="0.65" />
    <line x1="14" y1="20" x2="50" y2="20" stroke-width="0.65" />
    <line x1="14" y1="28" x2="50" y2="28" stroke-width="0.65" />
    <line x1="14" y1="36" x2="50" y2="36" stroke-width="0.65" />
    <line x1="14" y1="44" x2="50" y2="44" stroke-width="0.65" />
    <circle cx="32" cy="32" r="1.6" fill="#FFFFFF" stroke="none" />
  </g>
</svg>
