<svg xmlns="http://www.w3.org/2000/svg" width="64" height="64" viewBox="0 0 64 64">
  <title>near solid with holes</title>
  <g fill="none" stroke="#FFFFFF" stroke-linecap="butt" stroke-linejoin="miter">
    <rect x="12.75" y="8.75" width="2.5" height="2.5" fill="#FFFFFF" stroke="none" />
    <rect x="16.75" y="8.75" width="2.5" height="2.5" fill="#FFFFFF" stroke="none" />
    <rect x="20.75" y="8.75" width="2.5" height="2.5" fill="#FFFFFF" stroke="none" />
    <rect x="24.75" y="8.75" width="2.5" height="2.5" fill="#FFFFFF" stroke="none" />
    <rect x="32.75" y="8.75" width="2.5" height="2.5" fill="#FFFFFF" stroke="none" />
    <rect x="36.75" y="8.75" width="2.5" height="2.5" fill="#FFFFFF" stroke="none" />
    <rect x="40.75" y="8.75" width="2.5" height="2.5" fill="#FFFFFF" stroke="none" />
    <rect x="44.75" y="8.75" width="2.5" height="2.5" fill="#FFFFFF" stroke="none" />
    <rect x="52.75" y="8.75" width="2.5" height="2.5" fill="#FFFFFF" stroke="none" />
    <rect x="12.75" y="12.75" width="2.5" height="2.5" fill="#FFFFFF" stroke="none" />
    <rect x="16.75" y="12.75" width="2.5" height="2.5" fill="#FFFFFF" stroke="none" />
    <rect x="20.75" y="12.75" width="2.5" height="2.5" fill="#FFFFFF" stroke="none" />
    <rect x="24.75" y="12.75" width="2.5" height="2.5" fill="#FFFFFF" stroke="none" />
    <rect x="32.75" y="12.75" width="2.5" height="2.5" fill="#FFFFFF" stroke="none" />
    <rect x="36.75" y="12.75" width="2.5" height="2.5" fill="#FFFFFF" stroke="none" />
    <rect x="40.75" y="12.75" width="2.5" height="2.5" fill="#FFFFFF" stroke="none" />
    <rect x="44.75" y="12.75" width="2.5" height="2.5" fill="#FFFFFF" stroke="none" />
    <rect x="52.75" y="12.75" width="2.5" height="2.5" fill="#FFFFFF" stroke="none" />
    <rect x="12.75" y="16.75" width="2.5" height="2.5" fill="#FFFFFF" stroke="none" />
    <rect x="16.75" y="16.75" width="2.5" height="2.5" fill="#FFFFFF" stroke="none" />
    <rect x="20.75" y="16.75" width="2.5" height="2.5" fill="#FFFFFF" stroke="none" />
    <rect x="24.75" y="16.75" width="2.5" height="2.5" fill="#FFFFFF" stroke="none" />
    <rect x="32.75" y="16.75" width="2.5" height="2.5" fill="#FFFFFF" stroke="none" />
    <rect x="36.75" y="16.75" width="2.5" height="2.5" fill="#FFFFFF" stroke="none" />
    <rect x="40.75" y="16.75" width="2.5" height="2.5" fill="#FFFFFF" stroke="none" />
    <rect x="44.75" y="16.75" width="2.5" height="2.5" fill="#FFFFFF" stroke="none" />
    <rect x="52.75" y="16.75" width="2.5" height="2.5" fill="#FFFFFF" stroke="none" />
    <rect x="12.75" y="20.75" width="2.5" height="2.5" fill="#FFFFFF" stroke="none" />
    <rect x="16.75" y="20.75" width="2.5" height="2.5" fill="#FFFFFF" stroke="none" />
    <rect x="20.75" y="20.75" width="2.5" height="2.5" fill="#FFFFFF" stroke="none" />
    <rect x="24.75" y="20.75" width="2.5" height="2.5" fill="#FFFFFF" stroke="none" />
    <rect x="32.75" y="20.75" width="2.5" height="2.5" fill="#FFFFFF" stroke="none" />
    <rect x="36.75" y="20.75" width="2.5" height="2.5" fill="#FFFFFF" stroke="none" />
    <rect x="40.75" y="20.75" width="2.5" height="2.5" fill="#FFFFFF" stroke="none" />
    <rect x="44.75" y="20.75" width="2.5" height="2.5" fill="#FFFFFF" stroke="none" />
    <rect x="52.75" y="20.75" width="2.5" height="2.5" fill="#FFFFFF" stroke="none" />
    <rect x="12.75" y="24.75" width="2.5" height="2.5" fill="#FFFFFF" stroke="none" />
    <rect x="16.75" y="24.75" width="2.5" height="2.5" fill="#FFFFFF" stroke="none" />
    <rect x="20.75" y="24.75" width="2.5" height="2.5" fill="#FFFFFF" stroke="none" />
    <rect x="24.75" y="24.75" width="2.5" height="2.5" fill="#FFFFFF" stroke="none" />
    <rect x="32.75" y="24.75" width="2.5" height="2.5" fill="#FFFFFF" stroke="none" />
    <rect x="36.75" y="24.75" width="2.5" height="2.5" fill="#FFFFFF" stroke="none" />
    <rect x="40.75" y="24.75" width="2.5" height="2.5" fill="#FFFFFF" stroke="none" />
    <rect x="44.75" y="24.75" width="2.5" height="2.5" fill="#FFFFFF" stroke="none" />
    <rect x="52.75" y="24.75" width="2.5" height="2.5" fill="#FFFFFF" stroke="none" />
    <rect x="12.75" y="28.75" width="2.5" height="2.5" fill="#FFFFFF" stroke="none" />
    <rect x="16.75" y="28.75" width="2.5" height="2.5" fill="#FFFFFF" stroke="none" />
    <rect x="20.75" y="28.75" width="2.5" height="2.5" fill="#FFFFFF" stroke="none" />
    <rect x="24.75" y="28.75" width="2.5" height="2.5" fill="#FFFFFF" stroke="none" />
    <rect x="32.75" y="28.75" width="2.5" height="2.5" fill="#FFFFFF" stroke="none" />
    <rect x="36.75" y="28.75" width="2.5" height="2.5" fill="#FFFFFF" stroke="none" />
    <rect x="40.75" y="28.75" width="2.5" height="2.5" fill="#FFFFFF" stroke="none" />
    <rect x="44.75" y="28.75" width="2.5" height="2.5" fill="#FFFFFF" stroke="none" />
    <rect x="52.75" y="28.75" width="2.5" height="2.5" fill="#FFFFFF" stroke="none" />
    <rect x="12.75" y="32.75" width="2.5" height="2.5" fill="#FFFFFF" stroke="none" />
    <rect x="16.75" y="32.75" width="2.5" height="2.5" fill="#FFFFFF" stroke="none" />
    <rect x="20.75" y="32.75" width="2.5" height="2.5" fill="#FFFFFF" stroke="none" />
    <rect x="24.75" y="32.75" width="2.5" height="2.5" fill="#FFFFFF" stroke="none" />
    <rect x="32.75" y="32.75" width="2.5" height="2.5" fill="#FFFFFF" stroke="none" />
    <rect x="36.75" y="32.75" width="2.5" height="2.5" fill="#FFFFFF" stroke="none" />
    <rect x="40.75" y="32.75" width="2.5" height="2.5" fill="#FFFFFF" stroke="none" />
    <rect x="44.75" y="32.75" width="2.5" height="2.5" fill="#FFFFFF" stroke="none" />
    <rect x="52.75" y="32.75" width="2.5" height="2.5" fill="#FFFFFF" stroke="none" />
    <rect x="12.75" y="36.75" width="2.5" height="2.5" fill="#FFFFFF" stroke="none" />
    <rect x="16.75" y="36.75" width="2.5" height="2.5" fill="#FFFFFF" stroke="none" />
    <rect x="20.75" y="36.75" width="2.5" height="2.5" fill="#FFFFFF" stroke="none" />
    <rect x="24.75" y="36.75" width="2.5" height="2.5" fill="#FFFFFF" stroke="none" />
    <rect x="32.75" y="36.75" width="2.5" height="2.5" fill="#FFFFFF" stroke="none" />
    <rect x="36.75" y="36.75" width="2.5" height="2.5" fill="#FFFFFF" stroke="none" />
    <rect x="40.75" y="36.75" width="2.5" height="2.5" fill="#FFFFFF" stroke="none" />
    <rect x="44.75" y="36.75" width="2.5" height="2.5" fill="#FFFFFF" stroke="none" />
    <rect x="52.75" y="36.75" width="2.5" height="2.5" fill="#FFFFFF" stroke="none" />
    <rect x="12.75" y="40.75" width="2.5" height="2.5" fill="#FFFFFF" stroke="none" />
    <rect x="16.75" y="40.75" width="2.5" height="2.5" fill="#FFFFFF" stroke="none" />
    <rect x="20.75" y="40.75" width="2.5" height="2.5" fill="#FFFFFF" stroke="none" />
    <rect x="24.75" y="40.75" width="2.5" height="2.5" fill="#FFFFFF" stroke="none" />
    <rect x="32.75" y="40.75" width="2.5" height="2.5" fill="#FFFFFF" stroke="none" />
    <rect x="36.75" y="40.75" width="2.5" height="2.5" fill="#FFFFFF" stroke="none" />
    <rect x="40.75" y="40.75" width="2.5" height="2.5" fill="#FFFFFF" stroke="none" />
    <rect x="44.75" y="40.75" width="2.5" height="2.5" fill="#FFFFFF" stroke="none" />
    <rect x="52.75" y="40.75" width="2.5" height="2.5" fill="#FFFFFF" stroke="none" />
    <rect x="12.75" y="44.75" width="2.5" height="2.5" fill="#FFFFFF" stroke="none" />
    <rect x="16.75" y="44.75" width="2.5" height="2.5" fill="#FFFFFF" stroke="none" />
    <rect x="20.75" y="44.75" width="2.5" height="2.5" fill="#FFFFFF" stroke="none" />
    <rect x="24.75" y="44.75" width="2.5" height="2.5" fill="#FFFFFF" stroke="none" />
    <rect x="32.75" y="44.75" width="2.5" height="2.5" fill="#FFFFFF" stroke="none" />
    <rect x="36.75" y="44.75" width="2.5" height="2.5" fill="#FFFFFF" stroke="none" />
    <rect x="40.75" y="44.75" width="2.5" height="2.5" fill="#FFFFFF" stroke="none" />
    <rect x="44.75" y="44.75" width="2.5" height="2.5" fill="#FFFFFF" stroke="none" />
    <rect x="52.75" y="44.75" width="2.5" height="2.5" fill="#FFFFFF" stroke="none" />
    <rect x="12.75" y="48.75" width="2.5" height="2.5" fill="#FFFFFF" stroke="none" />
    <rect x="16.75" y="48.75" width="2.5" height="2.5" fill="#FFFFFF" stroke="none" />
    <rect x="20.75" y="48.75" width="2.5" height="2.5" fill="#FFFFFF" stroke="none" />
    <rect x="24.75" y="48.75" width="2.5" height="2.5" fill="#FFFFFF" stroke="none" />
    <rect x="32.75" y="48.75" width="2.5" height="2.5" fill="#FFFFFF" stroke="none" />
    <rect x="36.75" y="48.75" width="2.5" height="2.5" fill="#FFFFFF" stroke="none" />
    <rect x="40.75" y="48.75" width="2.5" height="2.5" fill="#FFFFFF" stroke="none" />
    <rect x="44.75" y="48.75" width="2.5" height="2.5" fill="#FFFFFF" stroke="none" />
    <rect x="52.75" y="48.75" width="2.5" height="2.5" fill="#FFFFFF" stroke="none" />
    <rect x="12.75" y="52.75" width="2.5" height="2.5" fill="#FFFFFF" stroke="none" />
    <rect x="16.75" y="52.75" width="2.5" height="2.5" fill="#FFFFFF" stroke="none" />
    <rect x="20.75" y="52.75" width="2.5" height="2.5" fill="#FFFFFF" stroke="none" />
    <rect x="24.75" y="52.75" width="2.5" height="2.5" fill="#FFFFFF" stroke="none" />
    <rect x="32.75" y="52.75" width="2.5" height="2.5" fill="#FFFFFF" stroke="none" />
    <rect x="36.75" y="52.75" width="2.5" height="2.5" fill="#FFFFFF" stroke="none" />
    <rect x="40.75" y="52.75" width="2.5" height="2.5" fill="#FFFFFF" stroke="none" />
    <rect x="44.75" y="52.75" width="2.5" height="2.5" fill="#FFFFFF" stroke="none" />
    <rect x="52.75" y="52.75" width="2.5" height="2.5" fill="#FFFFFF" stroke="none" />
    <line x1="16" y1="8" x2="16" y2="56" stroke-width="0.6" />
    <line x1="24" y1="8" x2="24" y2="56" stroke-width="0.6" />
    <line x1="32" y1="8" x2="32" y2="56" stroke-width="0.6" />
    <line x1="40" y1="8" x2="40" y2="56" stroke-width="0.6" />
    <line x1="48" y1="8" x2="48" y2="56" stroke-width="0.6" />
    <line x1="8" y1="16" x2="56" y2="16" stroke-width="0.6" />
    <line x1="8" y1="24" x2="56" y2="24" stroke-width="0.6" />
    <line x1="8" y1="32" x2="56" y2="32" stroke-width="0.6" />
    <line x1="8" y1="40" x2="56" y2="40" stroke-width="0.6" />
    <line x1="8" y1="48" x2="56" y2="48" stroke-width="0.6" />
  </g>
</svg>
