<?xml version="1.0" encoding="UTF-8"?>
<svg xmlns="http://www.w3.org/2000/svg" width="64" height="64" viewBox="0 0 64 64" shape-rendering="geometricPrecision">
  <title>full-cell ring screen</title>
  <g><circle cx="0" cy="0" r="4.1" fill="none" stroke="#FFFFFF" stroke-width="1.9" /><circle cx="8" cy="0" r="4.1" fill="none" stroke="#FFFFFF" stroke-width="1.9" /><circle cx="16" cy="0" r="4.1" fill="none" stroke="#FFFFFF" stroke-width="1.9" /><circle cx="24" cy="0" r="4.1" fill="none" stroke="#FFFFFF" stroke-width="1.9" /><circle cx="32" cy="0" r="4.1" fill="none" stroke="#FFFFFF" stroke-width="1.9" /><circle cx="40" cy="0" r="4.1" fill="none" stroke="#FFFFFF" stroke-width="1.9" /><circle cx="48" cy="0" r="4.1" fill="none" stroke="#FFFFFF" stroke-width="1.9" /><circle cx="56" cy="0" r="4.1" fill="none" stroke="#FFFFFF" stroke-width="1.9" /><circle cx="64" cy="0" r="4.1" fill="none" stroke="#FFFFFF" stroke-width="1.9" /><circle cx="0" cy="8" r="4.1" fill="none" stroke="#FFFFFF" stroke-width="1.9" /><circle cx="8" cy="8" r="4.1" fill="none" stroke="#FFFFFF" stroke-width="1.9" /><circle cx="16" cy="8" r="4.1" fill="none" stroke="#FFFFFF" stroke-width="1.9" /><circle cx="24" cy="8" r="4.1" fill="none" stroke="#FFFFFF" stroke-width="1.9" /><circle cx="32" cy="8" r="4.1" fill="none" stroke="#FFFFFF" stroke-width="1.9" /><circle cx="40" cy="8" r="4.1" fill="none" stroke="#FFFFFF" stroke-width="1.9" /><circle cx="48" cy="8" r="4.1" fill="none" stroke="#FFFFFF" stroke-width="1.9" /><circle cx="56" cy="8" r="4.1" fill="none" stroke="#FFFFFF" stroke-width="1.9" /><circle cx="64" cy="8" r="4.1" fill="none" stroke="#FFFFFF" stroke-width="1.9" /><circle cx="0" cy="16" r="4.1" fill="none" stroke="#FFFFFF" stroke-width="1.9" /><circle cx="8" cy="16" r="4.1" fill="none" stroke="#FFFFFF" stroke-width="1.9" /><circle cx="16" cy="16" r="4.1" fill="none" stroke="#FFFFFF" stroke-width="1.9" /><circle cx="24" cy="16" r="4.1" fill="none" stroke="#FFFFFF" stroke-width="1.9" /><circle cx="32" cy="16" r="4.1" fill="none" stroke="#FFFFFF" stroke-width="1.9" /><circle cx="40" cy="16" r="4.1" fill="none" stroke="#FFFFFF" stroke-width="1.9" /><circle cx="48" cy="16" r="4.1" fill="none" stroke="#FFFFFF" stroke-width="1.9" /><circle cx="56" cy="16" r="4.1" fill="none" stroke="#FFFFFF" stroke-width="1.9" /><circle cx="64" cy="16" r="4.1" fill="none" stroke="#FFFFFF" stroke-width="1.9" /><circle cx="0" cy="24" r="4.1" fill="none" stroke="#FFFFFF" stroke-width="1.9" /><circle cx="8" cy="24" r="4.1" fill="none" stroke="#FFFFFF" stroke-width="1.9" /><circle cx="16" cy="24" r="4.1" fill="none" stroke="#FFFFFF" stroke-width="1.9" /><circle cx="24" cy="24" r="4.1" fill="none" stroke="#FFFFFF" stroke-width="1.9" /><circle cx="32" cy="24" r="4.1" fill="none" stroke="#FFFFFF" stroke-width="1.9" /><circle cx="40" cy="24" r="4.1" fill="none" stroke="#FFFFFF" stroke-width="1.9" /><circle cx="48" cy="24" r="4.1" fill="none" stroke="#FFFFFF" stroke-width="1.9" /><circle cx="56" cy="24" r="4.1" fill="none" stroke="#FFFFFF" stroke-width="1.9" /><circle cx="64" cy="24" r="4.1" fill="none" stroke="#FFFFFF" stroke-width="1.9" /><circle cx="0" cy="32" r="4.1" fill="none" stroke="#FFFFFF" stroke-width="1.9" /><circle cx="8" cy="32" r="4.1" fill="none" stroke="#FFFFFF" stroke-width="1.9" /><circle cx="16" cy="32" r="4.1" fill="none" stroke="#FFFFFF" stroke-width="1.9" /><circle cx="24" cy="32" r="4.1" fill="none" stroke="#FFFFFF" stroke-width="1.9" /><circle cx="32" cy="32" r="4.1" fill="none" stroke="#FFFFFF" stroke-width="1.9" /><circle cx="40" cy="32" r="4.1" fill="none" stroke="#FFFFFF" stroke-width="1.9" /><circle cx="48" cy="32" r="4.1" fill="none" stroke="#FFFFFF" stroke-width="1.9" /><circle cx="56" cy="32" r="4.1" fill="none" stroke="#FFFFFF" stroke-width="1.9" /><circle cx="64" cy="32" r="4.1" fill="none" stroke="#FFFFFF" stroke-width="1.9" /><circle cx="0" cy="40" r="4.1" fill="none" stroke="#FFFFFF" stroke-width="1.9" /><circle cx="8" cy="40" r="4.1" fill="none" stroke="#FFFFFF" stroke-width="1.9" /><circle cx="16" cy="40" r="4.1" fill="none" stroke="#FFFFFF" stroke-width="1.9" /><circle cx="24" cy="40" r="4.1" fill="none" stroke="#FFFFFF" stroke-width="1.9" /><circle cx="32" cy="40" r="4.1" fill="none" stroke="#FFFFFF" stroke-width="1.9" /><circle cx="40" cy="40" r="4.1" fill="none" stroke="#FFFFFF" stroke-width="1.9" /><circle cx="48" cy="40" r="4.1" fill="none" stroke="#FFFFFF" stroke-width="1.9" /><circle cx="56" cy="40" r="4.1" fill="none" stroke="#FFFFFF" stroke-width="1.9" /><circle cx="64" cy="40" r="4.1" fill="none" stroke="#FFFFFF" stroke-width="1.9" /><circle cx="0" cy="48" r="4.1" fill="none" stroke="#FFFFFF" stroke-width="1.9" /><circle cx="8" cy="48" r="4.1" fill="none" stroke="#FFFFFF" stroke-width="1.9" /><circle cx="16" cy="48" r="4.1" fill="none" stroke="#FFFFFF" stroke-width="1.9" /><circle cx="24" cy="48" r="4.1" fill="none" stroke="#FFFFFF" stroke-width="1.9" /><circle cx="32" cy="48" r="4.1" fill="none" stroke="#FFFFFF" stroke-width="1.9" /><circle cx="40" cy="48" r="4.1" fill="none" stroke="#FFFFFF" stroke-width="1.9" /><circle cx="48" cy="48" r="4.1" fill="none" stroke="#FFFFFF" stroke-width="1.9" /><circle cx="56" cy="48" r="4.1" fill="none" stroke="#FFFFFF" stroke-width="1.9" /><circle cx="64" cy="48" r="4.1" fill="none" stroke="#FFFFFF" stroke-width="1.9" /><circle cx="0" cy="56" r="4.1" fill="none" stroke="#FFFFFF" stroke-width="1.9" /><circle cx="8" cy="56" r="4.1" fill="none" stroke="#FFFFFF" stroke-width="1.9" /><circle cx="16" cy="56" r="4.1" fill="none" stroke="#FFFFFF" stroke-width="1.9" /><circle cx="24" cy="56" r="4.1" fill="none" stroke="#FFFFFF" stroke-width="1.9" /><circle cx="32" cy="56" r="4.1" fill="none" stroke="#FFFFFF" stroke-width="1.9" /><circle cx="40" cy="56" r="4.1" fill="none" stroke="#FFFFFF" stroke-width="1.9" /><circle cx="48" cy="56" r="4.1" fill="none" stroke="#FFFFFF" stroke-width="1.9" /><circle cx="56" cy="56" r="4.1" fill="none" stroke="#FFFFFF" stroke-width="1.9" /><circle cx="64" cy="56" r="4.1" fill="none" stroke="#FFFFFF" stroke-width="1.9" /><circle cx="0" cy="64" r="4.1" fill="none" stroke="#FFFFFF" stroke-width="1.9" /><circle cx="8" cy="64" r="4.1" fill="none" stroke="#FFFFFF" stroke-width="1.9" /><circle cx="16" cy="64" r="4.1" fill="none" stroke="#FFFFFF" stroke-width="1.9" /><circle cx="24" cy="64" r="4.1" fill="none" stroke="#FFFFFF" stroke-width="1.9" /><circle cx="32" cy="64" r="4.1" fill="none" stroke="#FFFFFF" stroke-width="1.9" /><circle cx="40" cy="64" r="4.1" fill="none" stroke="#FFFFFF" stroke-width="1.9" /><circle cx="48" cy="64" r="4.1" fill="none" stroke="#FFFFFF" stroke-width="1.9" /><circle cx="56" cy="64" r="4.1" fill="none" stroke="#FFFFFF" stroke-width="1.9" /><circle cx="64" cy="64" r="4.1" fill="none" stroke="#FFFFFF" stroke-width="1.9" /></g>
</svg>
