<?xml version="1.0" encoding="UTF-8"?>
<svg xmlns="http://www.w3.org/2000/svg" width="64" height="64" viewBox="0 0 64 64" shape-rendering="geometricPrecision">
  <title>woven center</title>
  <g><line x1="8" y1="8" x2="8" y2="56" stroke="#FFFFFF" stroke-width="2.2" stroke-linecap="butt" /><line x1="8" y1="8" x2="56" y2="8" stroke="#FFFFFF" stroke-width="2.2" stroke-linecap="butt" /><line x1="18" y1="8" x2="18" y2="56" stroke="#FFFFFF" stroke-width="2.2" stroke-linecap="butt" /><line x1="8" y1="18" x2="56" y2="18" stroke="#FFFFFF" stroke-width="2.2" stroke-linecap="butt" /><line x1="28" y1="8" x2="28" y2="56" stroke="#FFFFFF" stroke-width="2.2" stroke-linecap="butt" /><line x1="8" y1="28" x2="56" y2="28" stroke="#FFFFFF" stroke-width="2.2" stroke-linecap="butt" /><line x1="38" y1="8" x2="38" y2="56" stroke="#FFFFFF" stroke-width="2.2" stroke-linecap="butt" /><line x1="8" y1="38" x2="56" y2="38" stroke="#FFFFFF" stroke-width="2.2" stroke-linecap="butt" /><line x1="48" y1="8" x2="48" y2="56" stroke="#FFFFFF" stroke-width="2.2" stroke-linecap="butt" /><line x1="8" y1="48" x2="56" y2="48" stroke="#FFFFFF" stroke-width="2.2" stroke-linecap="butt" /><line x1="-64" y1="56" x2="-16" y2="8" stroke="#FFFFFF" stroke-width="1.8" stroke-linecap="butt" /><line x1="-52" y1="56" x2="-4" y2="8" stroke="#FFFFFF" stroke-width="1.8" stroke-linecap="butt" /><line x1="-40" y1="56" x2="8" y2="8" stroke="#FFFFFF" stroke-width="1.8" stroke-linecap="butt" /><line x1="-28" y1="56" x2="20" y2="8" stroke="#FFFFFF" stroke-width="1.8" stroke-linecap="butt" /><line x1="-16" y1="56" x2="32" y2="8" stroke="#FFFFFF" stroke-width="1.8" stroke-linecap="butt" /><line x1="-4" y1="56" x2="44" y2="8" stroke="#FFFFFF" stroke-width="1.8" stroke-linecap="butt" /><line x1="8" y1="56" x2="56" y2="8" stroke="#FFFFFF" stroke-width="1.8" stroke-linecap="butt" /><line x1="20" y1="56" x2="68" y2="8" stroke="#FFFFFF" stroke-width="1.8" stroke-linecap="butt" /><line x1="32" y1="56" x2="80" y2="8" stroke="#FFFFFF" stroke-width="1.8" stroke-linecap="butt" /><line x1="44" y1="56" x2="92" y2="8" stroke="#FFFFFF" stroke-width="1.8" stroke-linecap="butt" /><line x1="56" y1="56" x2="104" y2="8" stroke="#FFFFFF" stroke-width="1.8" stroke-linecap="butt" /><line x1="68" y1="56" x2="116" y2="8" stroke="#FFFFFF" stroke-width="1.8" stroke-linecap="butt" /><line x1="80" y1="56" x2="128" y2="8" stroke="#FFFFFF" stroke-width="1.8" stroke-linecap="butt" /><line x1="92" y1="56" x2="140" y2="8" stroke="#FFFFFF" stroke-width="1.8" stroke-linecap="butt" /><line x1="104" y1="56" x2="152" y2="8" stroke="#FFFFFF" stroke-width="1.8" stroke-linecap="butt" /><line x1="116" y1="56" x2="164" y2="8" stroke="#FFFFFF" stroke-width="1.8" stroke-linecap="butt" /><line x1="128" y1="56" x2="176" y2="8" stroke="#FFFFFF" stroke-width="1.8" stroke-linecap="butt" /></g>
</svg>
