<?xml version="1.0" encoding="UTF-8"?>
<svg xmlns="http://www.w3.org/2000/svg" width="64" height="64" viewBox="0 0 64 64" shape-rendering="geometricPrecision">
  <title>micro checker block</title>
  <g><rect x="8" y="8" width="8" height="8" fill="#FFFFFF" /><rect x="24" y="8" width="8" height="8" fill="#FFFFFF" /><rect x="40" y="8" width="8" height="8" fill="#FFFFFF" /><rect x="16" y="16" width="8" height="8" fill="#FFFFFF" /><rect x="32" y="16" width="8" height="8" fill="#FFFFFF" /><rect x="48" y="16" width="8" height="8" fill="#FFFFFF" /><rect x="8" y="24" width="8" height="8" fill="#FFFFFF" /><rect x="24" y="24" width="8" height="8" fill="#FFFFFF" /><rect x="40" y="24" width="8" height="8" fill="#FFFFFF" /><rect x="16" y="32" width="8" height="8" fill="#FFFFFF" /><rect x="32" y="32" width="8" height="8" fill="#FFFFFF" /><rect x="48" y="32" width="8" height="8" fill="#FFFFFF" /><rect x="8" y="40" width="8" height="8" fill="#FFFFFF" /><rect x="24" y="40" width="8" height="8" fill="#FFFFFF" /><rect x="40" y="40" width="8" height="8" fill="#FFFFFF" /><rect x="16" y="48" width="8" height="8" fill="#FFFFFF" /><rect x="32" y="48" width="8" height="8" fill="#FFFFFF" /><rect x="48" y="48" width="8" height="8" fill="#FFFFFF" /></g>
</svg>
