<?xml version="1.0" encoding="UTF-8"?>
<svg xmlns="http://www.w3.org/2000/svg" width="64" height="64" viewBox="0 0 64 64" shape-rendering="geometricPrecision">
  <title>full-cell checker tone</title>
  <g><rect x="0" y="0" width="6" height="6" fill="#FFFFFF" /><rect x="8" y="0" width="6" height="6" fill="#FFFFFF" /><rect x="16" y="0" width="6" height="6" fill="#FFFFFF" /><rect x="24" y="0" width="6" height="6" fill="#FFFFFF" /><rect x="32" y="0" width="6" height="6" fill="#FFFFFF" /><rect x="40" y="0" width="6" height="6" fill="#FFFFFF" /><rect x="48" y="0" width="6" height="6" fill="#FFFFFF" /><rect x="56" y="0" width="6" height="6" fill="#FFFFFF" /><rect x="0" y="8" width="6" height="6" fill="#FFFFFF" /><rect x="8" y="8" width="6" height="6" fill="#FFFFFF" /><rect x="16" y="8" width="6" height="6" fill="#FFFFFF" /><rect x="24" y="8" width="6" height="6" fill="#FFFFFF" /><rect x="32" y="8" width="6" height="6" fill="#FFFFFF" /><rect x="40" y="8" width="6" height="6" fill="#FFFFFF" /><rect x="48" y="8" width="6" height="6" fill="#FFFFFF" /><rect x="56" y="8" width="6" height="6" fill="#FFFFFF" /><rect x="0" y="16" width="6" height="6" fill="#FFFFFF" /><rect x="8" y="16" width="6" height="6" fill="#FFFFFF" /><rect x="16" y="16" width="6" height="6" fill="#FFFFFF" /><rect x="24" y="16" width="6" height="6" fill="#FFFFFF" /><rect x="32" y="16" width="6" height="6" fill="#FFFFFF" /><rect x="40" y="16" width="6" height="6" fill="#FFFFFF" /><rect x="48" y="16" width="6" height="6" fill="#FFFFFF" /><rect x="56" y="16" width="6" height="6" fill="#FFFFFF" /><rect x="0" y="24" width="6" height="6" fill="#FFFFFF" /><rect x="8" y="24" width="6" height="6" fill="#FFFFFF" /><rect x="16" y="24" width="6" height="6" fill="#FFFFFF" /><rect x="24" y="24" width="6" height="6" fill="#FFFFFF" /><rect x="32" y="24" width="6" height="6" fill="#FFFFFF" /><rect x="40" y="24" width="6" height="6" fill="#FFFFFF" /><rect x="48" y="24" width="6" height="6" fill="#FFFFFF" /><rect x="56" y="24" width="6" height="6" fill="#FFFFFF" /><rect x="0" y="32" width="6" height="6" fill="#FFFFFF" /><rect x="8" y="32" width="6" height="6" fill="#FFFFFF" /><rect x="16" y="32" width="6" height="6" fill="#FFFFFF" /><rect x="24" y="32" width="6" height="6" fill="#FFFFFF" /><rect x="32" y="32" width="6" height="6" fill="#FFFFFF" /><rect x="40" y="32" width="6" height="6" fill="#FFFFFF" /><rect x="48" y="32" width="6" height="6" fill="#FFFFFF" /><rect x="56" y="32" width="6" height="6" fill="#FFFFFF" /><rect x="0" y="40" width="6" height="6" fill="#FFFFFF" /><rect x="8" y="40" width="6" height="6" fill="#FFFFFF" /><rect x="16" y="40" width="6" height="6" fill="#FFFFFF" /><rect x="24" y="40" width="6" height="6" fill="#FFFFFF" /><rect x="32" y="40" width="6" height="6" fill="#FFFFFF" /><rect x="40" y="40" width="6" height="6" fill="#FFFFFF" /><rect x="48" y="40" width="6" height="6" fill="#FFFFFF" /><rect x="56" y="40" width="6" height="6" fill="#FFFFFF" /><rect x="0" y="48" width="6" height="6" fill="#FFFFFF" /><rect x="8" y="48" width="6" height="6" fill="#FFFFFF" /><rect x="16" y="48" width="6" height="6" fill="#FFFFFF" /><rect x="24" y="48" width="6" height="6" fill="#FFFFFF" /><rect x="32" y="48" width="6" height="6" fill="#FFFFFF" /><rect x="40" y="48" width="6" height="6" fill="#FFFFFF" /><rect x="48" y="48" width="6" height="6" fill="#FFFFFF" /><rect x="56" y="48" width="6" height="6" fill="#FFFFFF" /><rect x="0" y="56" width="6" height="6" fill="#FFFFFF" /><rect x="8" y="56" width="6" height="6" fill="#FFFFFF" /><rect x="16" y="56" width="6" height="6" fill="#FFFFFF" /><rect x="24" y="56" width="6" height="6" fill="#FFFFFF" /><rect x="32" y="56" width="6" height="6" fill="#FFFFFF" /><rect x="40" y="56" width="6" height="6" fill="#FFFFFF" /><rect x="48" y="56" width="6" height="6" fill="#FFFFFF" /><rect x="56" y="56" width="6" height="6" fill="#FFFFFF" /></g>
</svg>
