<svg xmlns="http://www.w3.org/2000/svg" width="64" height="64" viewBox="0 0 64 64">
  <title>very dense weave</title>
  <g fill="none" stroke="#FFFFFF" stroke-linecap="butt" stroke-linejoin="miter">
    <rect x="4" y="4" width="56" height="56" stroke-width="1.6" />
    <line x1="8" y1="56" x2="8" y2="56" stroke-width="1.35" />
    <line x1="8" y1="49" x2="15" y2="56" stroke-width="1.35" />
    <line x1="8" y1="42" x2="22" y2="56" stroke-width="1.35" />
    <line x1="8" y1="35" x2="29" y2="56" stroke-width="1.35" />
    <line x1="8" y1="28" x2="36" y2="56" stroke-width="1.35" />
    <line x1="8" y1="21" x2="43" y2="56" stroke-width="1.35" />
    <line x1="8" y1="14" x2="50" y2="56" stroke-width="1.35" />
    <line x1="8" y1="8" x2="56" y2="56" stroke-width="1.35" />
    <line x1="8" y1="8" x2="56" y2="56" stroke-width="1.35" />
    <line x1="15" y1="8" x2="56" y2="56" stroke-width="1.35" />
    <line x1="22" y1="8" x2="56" y2="56" stroke-width="1.35" />
    <line x1="29" y1="8" x2="56" y2="56" stroke-width="1.35" />
    <line x1="36" y1="8" x2="56" y2="56" stroke-width="1.35" />
    <line x1="43" y1="8" x2="56" y2="56" stroke-width="1.35" />
    <line x1="50" y1="8" x2="56" y2="54" stroke-width="1.35" />
    <line x1="57" y1="8" x2="56" y2="47" stroke-width="1.35" />
    <line x1="64" y1="8" x2="56" y2="40" stroke-width="1.35" />
    <line x1="71" y1="8" x2="56" y2="33" stroke-width="1.35" />
    <line x1="78" y1="8" x2="56" y2="26" stroke-width="1.35" />
    <line x1="8" y1="-8" x2="-8" y2="8" stroke-width="1.35" />
    <line x1="8" y1="-1" x2="-1" y2="8" stroke-width="1.35" />
    <line x1="8" y1="6" x2="6" y2="8" stroke-width="1.35" />
    <line x1="8" y1="13" x2="13" y2="8" stroke-width="1.35" />
    <line x1="8" y1="20" x2="20" y2="8" stroke-width="1.35" />
    <line x1="8" y1="27" x2="27" y2="8" stroke-width="1.35" />
    <line x1="8" y1="34" x2="34" y2="8" stroke-width="1.35" />
    <line x1="8" y1="41" x2="41" y2="8" stroke-width="1.35" />
    <line x1="8" y1="48" x2="48" y2="8" stroke-width="1.35" />
    <line x1="8" y1="55" x2="55" y2="8" stroke-width="1.35" />
    <line x1="14" y1="56" x2="56" y2="14" stroke-width="1.35" />
    <line x1="21" y1="56" x2="56" y2="21" stroke-width="1.35" />
    <line x1="28" y1="56" x2="56" y2="28" stroke-width="1.35" />
    <line x1="35" y1="56" x2="56" y2="35" stroke-width="1.35" />
    <line x1="42" y1="56" x2="56" y2="42" stroke-width="1.35" />
    <line x1="49" y1="56" x2="56" y2="49" stroke-width="1.35" />
    <line x1="56" y1="56" x2="56" y2="56" stroke-width="1.35" />
    <line x1="10" y1="4" x2="10" y2="60" stroke-width="0.95" />
    <line x1="16" y1="4" x2="16" y2="60" stroke-width="0.95" />
    <line x1="22" y1="4" x2="22" y2="60" stroke-width="0.95" />
    <line x1="28" y1="4" x2="28" y2="60" stroke-width="0.95" />
    <line x1="34" y1="4" x2="34" y2="60" stroke-width="0.95" />
    <line x1="40" y1="4" x2="40" y2="60" stroke-width="0.95" />
    <line x1="46" y1="4" x2="46" y2="60" stroke-width="0.95" />
    <line x1="52" y1="4" x2="52" y2="60" stroke-width="0.95" />
    <line x1="4" y1="10" x2="60" y2="10" stroke-width="0.95" />
    <line x1="4" y1="16" x2="60" y2="16" stroke-width="0.95" />
    <line x1="4" y1="22" x2="60" y2="22" stroke-width="0.95" />
    <line x1="4" y1="28" x2="60" y2="28" stroke-width="0.95" />
    <line x1="4" y1="34" x2="60" y2="34" stroke-width="0.95" />
    <line x1="4" y1="40" x2="60" y2="40" stroke-width="0.95" />
    <line x1="4" y1="46" x2="60" y2="46" stroke-width="0.95" />
    <line x1="4" y1="52" x2="60" y2="52" stroke-width="0.95" />
    <rect x="12" y="12" width="40" height="40" stroke-width="1.1" />
    <circle cx="32" cy="32" r="24" stroke-width="1.05" />
  </g>
</svg>
