<svg xmlns="http://www.w3.org/2000/svg" width="64" height="64" viewBox="0 0 64 64">
  <title>dense geometric weave</title>
  <g fill="none" stroke="#FFFFFF" stroke-linecap="butt" stroke-linejoin="miter">
    <rect x="5" y="5" width="54" height="54" stroke-width="1.3" />
    <line x1="8" y1="56" x2="8" y2="56" stroke-width="1.05" />
    <line x1="8" y1="46" x2="18" y2="56" stroke-width="1.05" />
    <line x1="8" y1="36" x2="28" y2="56" stroke-width="1.05" />
    <line x1="8" y1="26" x2="38" y2="56" stroke-width="1.05" />
    <line x1="8" y1="16" x2="48" y2="56" stroke-width="1.05" />
    <line x1="8" y1="8" x2="56" y2="56" stroke-width="1.05" />
    <line x1="12" y1="8" x2="56" y2="56" stroke-width="1.05" />
    <line x1="22" y1="8" x2="56" y2="56" stroke-width="1.05" />
    <line x1="32" y1="8" x2="56" y2="56" stroke-width="1.05" />
    <line x1="42" y1="8" x2="56" y2="56" stroke-width="1.05" />
    <line x1="52" y1="8" x2="56" y2="52" stroke-width="1.05" />
    <line x1="62" y1="8" x2="56" y2="42" stroke-width="1.05" />
    <line x1="72" y1="8" x2="56" y2="32" stroke-width="1.05" />
    <line x1="8" y1="-8" x2="-8" y2="8" stroke-width="1.05" />
    <line x1="8" y1="2" x2="2" y2="8" stroke-width="1.05" />
    <line x1="8" y1="12" x2="12" y2="8" stroke-width="1.05" />
    <line x1="8" y1="22" x2="22" y2="8" stroke-width="1.05" />
    <line x1="8" y1="32" x2="32" y2="8" stroke-width="1.05" />
    <line x1="8" y1="42" x2="42" y2="8" stroke-width="1.05" />
    <line x1="8" y1="52" x2="52" y2="8" stroke-width="1.05" />
    <line x1="14" y1="56" x2="56" y2="14" stroke-width="1.05" />
    <line x1="24" y1="56" x2="56" y2="24" stroke-width="1.05" />
    <line x1="34" y1="56" x2="56" y2="34" stroke-width="1.05" />
    <line x1="44" y1="56" x2="56" y2="44" stroke-width="1.05" />
    <line x1="54" y1="56" x2="56" y2="54" stroke-width="1.05" />
    <line x1="14" y1="5" x2="14" y2="59" stroke-width="0.75" />
    <line x1="22" y1="5" x2="22" y2="59" stroke-width="0.75" />
    <line x1="30" y1="5" x2="30" y2="59" stroke-width="0.75" />
    <line x1="38" y1="5" x2="38" y2="59" stroke-width="0.75" />
    <line x1="46" y1="5" x2="46" y2="59" stroke-width="0.75" />
    <line x1="54" y1="5" x2="54" y2="59" stroke-width="0.75" />
    <line x1="5" y1="14" x2="59" y2="14" stroke-width="0.75" />
    <line x1="5" y1="22" x2="59" y2="22" stroke-width="0.75" />
    <line x1="5" y1="30" x2="59" y2="30" stroke-width="0.75" />
    <line x1="5" y1="38" x2="59" y2="38" stroke-width="0.75" />
    <line x1="5" y1="46" x2="59" y2="46" stroke-width="0.75" />
    <line x1="5" y1="54" x2="59" y2="54" stroke-width="0.75" />
    <circle cx="32" cy="32" r="18" stroke-width="1" />
  </g>
</svg>
