<svg xmlns="http://www.w3.org/2000/svg" width="64" height="64" viewBox="0 0 64 64">
  <title>heavy weave</title>
  <g fill="none" stroke="#FFFFFF" stroke-linecap="butt" stroke-linejoin="miter">
    <rect x="4" y="4" width="56" height="56" stroke-width="1.5" />
    <line x1="8" y1="56" x2="8" y2="56" stroke-width="1.25" />
    <line x1="8" y1="48" x2="16" y2="56" stroke-width="1.25" />
    <line x1="8" y1="40" x2="24" y2="56" stroke-width="1.25" />
    <line x1="8" y1="32" x2="32" y2="56" stroke-width="1.25" />
    <line x1="8" y1="24" x2="40" y2="56" stroke-width="1.25" />
    <line x1="8" y1="16" x2="48" y2="56" stroke-width="1.25" />
    <line x1="8" y1="8" x2="56" y2="56" stroke-width="1.25" />
    <line x1="8" y1="8" x2="56" y2="56" stroke-width="1.25" />
    <line x1="16" y1="8" x2="56" y2="56" stroke-width="1.25" />
    <line x1="24" y1="8" x2="56" y2="56" stroke-width="1.25" />
    <line x1="32" y1="8" x2="56" y2="56" stroke-width="1.25" />
    <line x1="40" y1="8" x2="56" y2="56" stroke-width="1.25" />
    <line x1="48" y1="8" x2="56" y2="56" stroke-width="1.25" />
    <line x1="56" y1="8" x2="56" y2="48" stroke-width="1.25" />
    <line x1="64" y1="8" x2="56" y2="40" stroke-width="1.25" />
    <line x1="72" y1="8" x2="56" y2="32" stroke-width="1.25" />
    <line x1="80" y1="8" x2="56" y2="24" stroke-width="1.25" />
    <line x1="8" y1="-8" x2="-8" y2="8" stroke-width="1.25" />
    <line x1="8" y1="0" x2="0" y2="8" stroke-width="1.25" />
    <line x1="8" y1="8" x2="8" y2="8" stroke-width="1.25" />
    <line x1="8" y1="16" x2="16" y2="8" stroke-width="1.25" />
    <line x1="8" y1="24" x2="24" y2="8" stroke-width="1.25" />
    <line x1="8" y1="32" x2="32" y2="8" stroke-width="1.25" />
    <line x1="8" y1="40" x2="40" y2="8" stroke-width="1.25" />
    <line x1="8" y1="48" x2="48" y2="8" stroke-width="1.25" />
    <line x1="8" y1="56" x2="56" y2="8" stroke-width="1.25" />
    <line x1="16" y1="56" x2="56" y2="16" stroke-width="1.25" />
    <line x1="24" y1="56" x2="56" y2="24" stroke-width="1.25" />
    <line x1="32" y1="56" x2="56" y2="32" stroke-width="1.25" />
    <line x1="40" y1="56" x2="56" y2="40" stroke-width="1.25" />
    <line x1="48" y1="56" x2="56" y2="48" stroke-width="1.25" />
    <line x1="56" y1="56" x2="56" y2="56" stroke-width="1.25" />
    <line x1="12" y1="4" x2="12" y2="60" stroke-width="0.9" />
    <line x1="20" y1="4" x2="20" y2="60" stroke-width="0.9" />
    <line x1="28" y1="4" x2="28" y2="60" stroke-width="0.9" />
    <line x1="36" y1="4" x2="36" y2="60" stroke-width="0.9" />
    <line x1="44" y1="4" x2="44" y2="60" stroke-width="0.9" />
    <line x1="52" y1="4" x2="52" y2="60" stroke-width="0.9" />
    <line x1="4" y1="12" x2="60" y2="12" stroke-width="0.9" />
    <line x1="4" y1="20" x2="60" y2="20" stroke-width="0.9" />
    <line x1="4" y1="28" x2="60" y2="28" stroke-width="0.9" />
    <line x1="4" y1="36" x2="60" y2="36" stroke-width="0.9" />
    <line x1="4" y1="44" x2="60" y2="44" stroke-width="0.9" />
    <line x1="4" y1="52" x2="60" y2="52" stroke-width="0.9" />
    <circle cx="32" cy="32" r="23" stroke-width="1.1" />
    <rect x="20" y="20" width="24" height="24" stroke-width="1.1" />
  </g>
</svg>
