<svg xmlns="http://www.w3.org/2000/svg" width="64" height="64" viewBox="0 0 64 64">
  <title>dense lattice</title>
  <g fill="none" stroke="#FFFFFF" stroke-linecap="butt" stroke-linejoin="miter">
    <rect x="8" y="8" width="48" height="48" stroke-width="1.3" />
    <line x1="14" y1="8" x2="14" y2="56" stroke-width="0.9" />
    <line x1="20" y1="8" x2="20" y2="56" stroke-width="0.9" />
    <line x1="26" y1="8" x2="26" y2="56" stroke-width="0.9" />
    <line x1="32" y1="8" x2="32" y2="56" stroke-width="0.9" />
    <line x1="38" y1="8" x2="38" y2="56" stroke-width="0.9" />
    <line x1="44" y1="8" x2="44" y2="56" stroke-width="0.9" />
    <line x1="50" y1="8" x2="50" y2="56" stroke-width="0.9" />
    <line x1="8" y1="14" x2="56" y2="14" stroke-width="0.9" />
    <line x1="8" y1="20" x2="56" y2="20" stroke-width="0.9" />
    <line x1="8" y1="26" x2="56" y2="26" stroke-width="0.9" />
    <line x1="8" y1="32" x2="56" y2="32" stroke-width="0.9" />
    <line x1="8" y1="38" x2="56" y2="38" stroke-width="0.9" />
    <line x1="8" y1="44" x2="56" y2="44" stroke-width="0.9" />
    <line x1="8" y1="50" x2="56" y2="50" stroke-width="0.9" />
    <line x1="8" y1="54" x2="10" y2="56" stroke-width="0.85" />
    <line x1="8" y1="40" x2="24" y2="56" stroke-width="0.85" />
    <line x1="8" y1="26" x2="38" y2="56" stroke-width="0.85" />
    <line x1="8" y1="12" x2="52" y2="56" stroke-width="0.85" />
    <line x1="10" y1="8" x2="56" y2="56" stroke-width="0.85" />
    <line x1="24" y1="8" x2="56" y2="56" stroke-width="0.85" />
    <line x1="38" y1="8" x2="56" y2="56" stroke-width="0.85" />
    <line x1="52" y1="8" x2="56" y2="52" stroke-width="0.85" />
    <line x1="66" y1="8" x2="56" y2="38" stroke-width="0.85" />
    <line x1="80" y1="8" x2="56" y2="24" stroke-width="0.85" />
    <line x1="8" y1="-8" x2="-8" y2="8" stroke-width="0.75" />
    <line x1="8" y1="10" x2="10" y2="8" stroke-width="0.75" />
    <line x1="8" y1="28" x2="28" y2="8" stroke-width="0.75" />
    <line x1="8" y1="46" x2="46" y2="8" stroke-width="0.75" />
    <line x1="16" y1="56" x2="56" y2="16" stroke-width="0.75" />
    <line x1="34" y1="56" x2="56" y2="34" stroke-width="0.75" />
    <line x1="52" y1="56" x2="56" y2="52" stroke-width="0.75" />
  </g>
</svg>
