<svg xmlns="http://www.w3.org/2000/svg" width="64" height="64" viewBox="0 0 64 64">
  <title>ultra-dense structured fill</title>
  <g fill="none" stroke="#FFFFFF" stroke-linecap="butt" stroke-linejoin="miter">
    <rect x="4" y="4" width="56" height="56" stroke-width="1.8" />
    <line x1="8" y1="56" x2="8" y2="56" stroke-width="1.75" />
    <line x1="8" y1="51" x2="13" y2="56" stroke-width="1.75" />
    <line x1="8" y1="46" x2="18" y2="56" stroke-width="1.75" />
    <line x1="8" y1="41" x2="23" y2="56" stroke-width="1.75" />
    <line x1="8" y1="36" x2="28" y2="56" stroke-width="1.75" />
    <line x1="8" y1="31" x2="33" y2="56" stroke-width="1.75" />
    <line x1="8" y1="26" x2="38" y2="56" stroke-width="1.75" />
    <line x1="8" y1="21" x2="43" y2="56" stroke-width="1.75" />
    <line x1="8" y1="16" x2="48" y2="56" stroke-width="1.75" />
    <line x1="8" y1="11" x2="53" y2="56" stroke-width="1.75" />
    <line x1="8" y1="8" x2="56" y2="56" stroke-width="1.75" />
    <line x1="8" y1="8" x2="56" y2="56" stroke-width="1.75" />
    <line x1="12" y1="8" x2="56" y2="56" stroke-width="1.75" />
    <line x1="17" y1="8" x2="56" y2="56" stroke-width="1.75" />
    <line x1="22" y1="8" x2="56" y2="56" stroke-width="1.75" />
    <line x1="27" y1="8" x2="56" y2="56" stroke-width="1.75" />
    <line x1="32" y1="8" x2="56" y2="56" stroke-width="1.75" />
    <line x1="37" y1="8" x2="56" y2="56" stroke-width="1.75" />
    <line x1="42" y1="8" x2="56" y2="56" stroke-width="1.75" />
    <line x1="47" y1="8" x2="56" y2="56" stroke-width="1.75" />
    <line x1="52" y1="8" x2="56" y2="52" stroke-width="1.75" />
    <line x1="57" y1="8" x2="56" y2="47" stroke-width="1.75" />
    <line x1="62" y1="8" x2="56" y2="42" stroke-width="1.75" />
    <line x1="67" y1="8" x2="56" y2="37" stroke-width="1.75" />
    <line x1="72" y1="8" x2="56" y2="32" stroke-width="1.75" />
    <line x1="77" y1="8" x2="56" y2="27" stroke-width="1.75" />
    <line x1="8" y1="-8" x2="-8" y2="8" stroke-width="1.75" />
    <line x1="8" y1="-3" x2="-3" y2="8" stroke-width="1.75" />
    <line x1="8" y1="2" x2="2" y2="8" stroke-width="1.75" />
    <line x1="8" y1="7" x2="7" y2="8" stroke-width="1.75" />
    <line x1="8" y1="12" x2="12" y2="8" stroke-width="1.75" />
    <line x1="8" y1="17" x2="17" y2="8" stroke-width="1.75" />
    <line x1="8" y1="22" x2="22" y2="8" stroke-width="1.75" />
    <line x1="8" y1="27" x2="27" y2="8" stroke-width="1.75" />
    <line x1="8" y1="32" x2="32" y2="8" stroke-width="1.75" />
    <line x1="8" y1="37" x2="37" y2="8" stroke-width="1.75" />
    <line x1="8" y1="42" x2="42" y2="8" stroke-width="1.75" />
    <line x1="8" y1="47" x2="47" y2="8" stroke-width="1.75" />
    <line x1="8" y1="52" x2="52" y2="8" stroke-width="1.75" />
    <line x1="9" y1="56" x2="56" y2="9" stroke-width="1.75" />
    <line x1="14" y1="56" x2="56" y2="14" stroke-width="1.75" />
    <line x1="19" y1="56" x2="56" y2="19" stroke-width="1.75" />
    <line x1="24" y1="56" x2="56" y2="24" stroke-width="1.75" />
    <line x1="29" y1="56" x2="56" y2="29" stroke-width="1.75" />
    <line x1="34" y1="56" x2="56" y2="34" stroke-width="1.75" />
    <line x1="39" y1="56" x2="56" y2="39" stroke-width="1.75" />
    <line x1="44" y1="56" x2="56" y2="44" stroke-width="1.75" />
    <line x1="49" y1="56" x2="56" y2="49" stroke-width="1.75" />
    <line x1="54" y1="56" x2="56" y2="54" stroke-width="1.75" />
    <line x1="9" y1="4" x2="9" y2="60" stroke-width="1.15" />
    <line x1="14" y1="4" x2="14" y2="60" stroke-width="1.15" />
    <line x1="19" y1="4" x2="19" y2="60" stroke-width="1.15" />
    <line x1="24" y1="4" x2="24" y2="60" stroke-width="1.15" />
    <line x1="29" y1="4" x2="29" y2="60" stroke-width="1.15" />
    <line x1="34" y1="4" x2="34" y2="60" stroke-width="1.15" />
    <line x1="39" y1="4" x2="39" y2="60" stroke-width="1.15" />
    <line x1="44" y1="4" x2="44" y2="60" stroke-width="1.15" />
    <line x1="49" y1="4" x2="49" y2="60" stroke-width="1.15" />
    <line x1="54" y1="4" x2="54" y2="60" stroke-width="1.15" />
    <line x1="4" y1="9" x2="60" y2="9" stroke-width="1.15" />
    <line x1="4" y1="14" x2="60" y2="14" stroke-width="1.15" />
    <line x1="4" y1="19" x2="60" y2="19" stroke-width="1.15" />
    <line x1="4" y1="24" x2="60" y2="24" stroke-width="1.15" />
    <line x1="4" y1="29" x2="60" y2="29" stroke-width="1.15" />
    <line x1="4" y1="34" x2="60" y2="34" stroke-width="1.15" />
    <line x1="4" y1="39" x2="60" y2="39" stroke-width="1.15" />
    <line x1="4" y1="44" x2="60" y2="44" stroke-width="1.15" />
    <line x1="4" y1="49" x2="60" y2="49" stroke-width="1.15" />
    <line x1="4" y1="54" x2="60" y2="54" stroke-width="1.15" />
    <circle cx="32" cy="32" r="24" stroke-width="1.55" />
    <circle cx="32" cy="32" r="16" stroke-width="1.35" />
    <rect x="12" y="12" width="40" height="40" stroke-width="1.45" />
    <rect x="22" y="22" width="20" height="20" stroke-width="1.2" />
  </g>
</svg>
