<svg xmlns="http://www.w3.org/2000/svg" width="64" height="64" viewBox="0 0 64 64" shape-rendering="crispEdges">
  <g fill="#FFFFFF">
    <rect x="4" y="0" width="12" height="4" />
    <rect x="48" y="0" width="12" height="4" />
    <rect x="0" y="4" width="64" height="4" />
    <rect x="0" y="8" width="64" height="4" />
    <rect x="0" y="12" width="64" height="4" />
    <rect x="4" y="16" width="56" height="4" />
    <rect x="4" y="20" width="56" height="4" />
    <rect x="4" y="24" width="56" height="4" />
    <rect x="4" y="28" width="56" height="4" />
    <rect x="4" y="32" width="56" height="4" />
    <rect x="4" y="36" width="56" height="4" />
    <rect x="4" y="40" width="56" height="4" />
    <rect x="4" y="44" width="56" height="4" />
    <rect x="0" y="48" width="64" height="4" />
    <rect x="0" y="52" width="64" height="4" />
    <rect x="0" y="56" width="64" height="4" />
    <rect x="4" y="60" width="12" height="4" />
    <rect x="48" y="60" width="12" height="4" />
  </g>
</svg>
