<svg xmlns="http://www.w3.org/2000/svg" width="64" height="64" viewBox="0 0 64 64" shape-rendering="crispEdges">
  <g fill="#FFFFFF">
    <rect x="16" y="16" width="12" height="4" />
    <rect x="40" y="16" width="8" height="4" />
    <rect x="16" y="20" width="12" height="4" />
    <rect x="36" y="20" width="12" height="4" />
    <rect x="8" y="24" width="4" height="4" />
    <rect x="20" y="24" width="8" height="4" />
    <rect x="4" y="28" width="12" height="4" />
    <rect x="24" y="28" width="8" height="4" />
    <rect x="56" y="28" width="4" height="4" />
    <rect x="4" y="32" width="4" height="4" />
    <rect x="12" y="32" width="4" height="4" />
    <rect x="24" y="32" width="12" height="4" />
    <rect x="48" y="32" width="12" height="4" />
    <rect x="16" y="36" width="8" height="4" />
    <rect x="28" y="36" width="8" height="4" />
    <rect x="48" y="36" width="4" height="4" />
    <rect x="16" y="40" width="8" height="4" />
    <rect x="40" y="44" width="12" height="4" />
  </g>
</svg>
