<svg xmlns="http://www.w3.org/2000/svg" width="64" height="64" viewBox="0 0 64 64" shape-rendering="crispEdges">
  <g fill="#FFFFFF">
    <rect x="4" y="0" width="20" height="4" />
    <rect x="28" y="0" width="36" height="4" />
    <rect x="0" y="4" width="4" height="4" />
    <rect x="16" y="4" width="4" height="4" />
    <rect x="32" y="4" width="4" height="4" />
    <rect x="48" y="4" width="4" height="4" />
    <rect x="60" y="4" width="4" height="4" />
    <rect x="0" y="8" width="4" height="4" />
    <rect x="16" y="8" width="4" height="4" />
    <rect x="32" y="8" width="4" height="4" />
    <rect x="48" y="8" width="4" height="4" />
    <rect x="60" y="8" width="4" height="4" />
    <rect x="0" y="12" width="4" height="4" />
    <rect x="16" y="12" width="4" height="4" />
    <rect x="32" y="12" width="4" height="4" />
    <rect x="48" y="12" width="4" height="4" />
    <rect x="60" y="12" width="4" height="4" />
    <rect x="0" y="16" width="64" height="4" />
    <rect x="0" y="20" width="4" height="4" />
    <rect x="16" y="20" width="4" height="4" />
    <rect x="32" y="20" width="4" height="4" />
    <rect x="48" y="20" width="4" height="4" />
    <rect x="60" y="20" width="4" height="4" />
    <rect x="0" y="24" width="4" height="4" />
    <rect x="16" y="24" width="4" height="4" />
    <rect x="32" y="24" width="4" height="4" />
    <rect x="48" y="24" width="4" height="4" />
    <rect x="60" y="24" width="4" height="4" />
    <rect x="0" y="28" width="4" height="4" />
    <rect x="16" y="28" width="4" height="4" />
    <rect x="32" y="28" width="4" height="4" />
    <rect x="48" y="28" width="4" height="4" />
    <rect x="4" y="32" width="60" height="4" />
    <rect x="0" y="36" width="4" height="4" />
    <rect x="16" y="36" width="4" height="4" />
    <rect x="32" y="36" width="4" height="4" />
    <rect x="48" y="36" width="4" height="4" />
    <rect x="60" y="36" width="4" height="4" />
    <rect x="0" y="40" width="4" height="4" />
    <rect x="16" y="40" width="4" height="4" />
    <rect x="32" y="40" width="4" height="4" />
    <rect x="48" y="40" width="4" height="4" />
    <rect x="60" y="40" width="4" height="4" />
    <rect x="0" y="44" width="4" height="4" />
    <rect x="16" y="44" width="4" height="4" />
    <rect x="32" y="44" width="4" height="4" />
    <rect x="48" y="44" width="4" height="4" />
    <rect x="60" y="44" width="4" height="4" />
    <rect x="0" y="48" width="64" height="4" />
    <rect x="0" y="52" width="4" height="4" />
    <rect x="16" y="52" width="4" height="4" />
    <rect x="32" y="52" width="4" height="4" />
    <rect x="48" y="52" width="4" height="4" />
    <rect x="60" y="52" width="4" height="4" />
    <rect x="0" y="56" width="4" height="4" />
    <rect x="16" y="56" width="4" height="4" />
    <rect x="32" y="56" width="4" height="4" />
    <rect x="48" y="56" width="4" height="4" />
    <rect x="60" y="56" width="4" height="4" />
    <rect x="0" y="60" width="8" height="4" />
    <rect x="12" y="60" width="36" height="4" />
    <rect x="52" y="60" width="8" height="4" />
  </g>
</svg>
