<svg xmlns="http://www.w3.org/2000/svg" width="64" height="64" viewBox="0 0 64 64" shape-rendering="crispEdges">
  <g fill="#FFFFFF">
    <rect x="0" y="0" width="64" height="4" />
    <rect x="0" y="4" width="64" height="4" />
    <rect x="0" y="8" width="64" height="4" />
    <rect x="0" y="12" width="52" height="4" />
    <rect x="56" y="12" width="8" height="4" />
    <rect x="0" y="16" width="12" height="4" />
    <rect x="16" y="16" width="32" height="4" />
    <rect x="52" y="16" width="12" height="4" />
    <rect x="0" y="20" width="44" height="4" />
    <rect x="48" y="20" width="16" height="4" />
    <rect x="0" y="24" width="64" height="4" />
    <rect x="0" y="28" width="64" height="4" />
    <rect x="0" y="32" width="32" height="4" />
    <rect x="36" y="32" width="28" height="4" />
    <rect x="0" y="36" width="64" height="4" />
    <rect x="0" y="40" width="24" height="4" />
    <rect x="28" y="40" width="8" height="4" />
    <rect x="40" y="40" width="24" height="4" />
    <rect x="0" y="44" width="16" height="4" />
    <rect x="24" y="44" width="40" height="4" />
    <rect x="0" y="48" width="16" height="4" />
    <rect x="20" y="48" width="44" height="4" />
    <rect x="0" y="52" width="12" height="4" />
    <rect x="16" y="52" width="32" height="4" />
    <rect x="52" y="52" width="12" height="4" />
    <rect x="0" y="56" width="8" height="4" />
    <rect x="12" y="56" width="40" height="4" />
    <rect x="56" y="56" width="8" height="4" />
    <rect x="0" y="60" width="56" height="4" />
    <rect x="60" y="60" width="4" height="4" />
  </g>
</svg>
