<svg xmlns="http://www.w3.org/2000/svg" width="64" height="64" viewBox="0 0 64 64" shape-rendering="crispEdges">
  <g fill="#FFFFFF">
    <rect x="0" y="0" width="64" height="4" />
    <rect x="0" y="4" width="64" height="4" />
    <rect x="0" y="8" width="12" height="4" />
    <rect x="16" y="8" width="48" height="4" />
    <rect x="0" y="12" width="64" height="4" />
    <rect x="0" y="16" width="64" height="4" />
    <rect x="0" y="20" width="36" height="4" />
    <rect x="40" y="20" width="24" height="4" />
    <rect x="0" y="24" width="28" height="4" />
    <rect x="32" y="24" width="32" height="4" />
    <rect x="0" y="28" width="64" height="4" />
    <rect x="0" y="32" width="64" height="4" />
    <rect x="0" y="36" width="20" height="4" />
    <rect x="24" y="36" width="40" height="4" />
    <rect x="0" y="40" width="16" height="4" />
    <rect x="20" y="40" width="44" height="4" />
    <rect x="0" y="44" width="12" height="4" />
    <rect x="16" y="44" width="48" height="4" />
    <rect x="0" y="48" width="64" height="4" />
    <rect x="0" y="52" width="4" height="4" />
    <rect x="8" y="52" width="48" height="4" />
    <rect x="60" y="52" width="4" height="4" />
    <rect x="0" y="56" width="64" height="4" />
    <rect x="0" y="60" width="64" height="4" />
  </g>
</svg>
