<svg xmlns="http://www.w3.org/2000/svg" width="64" height="64" viewBox="0 0 64 64" shape-rendering="crispEdges">
  <g fill="#FFFFFF">
    <rect x="8" y="0" width="4" height="4" />
    <rect x="20" y="0" width="4" height="4" />
    <rect x="48" y="0" width="8" height="4" />
    <rect x="60" y="0" width="4" height="4" />
    <rect x="0" y="4" width="24" height="4" />
    <rect x="36" y="4" width="28" height="4" />
    <rect x="8" y="8" width="4" height="4" />
    <rect x="20" y="8" width="4" height="4" />
    <rect x="44" y="8" width="8" height="4" />
    <rect x="60" y="8" width="4" height="4" />
    <rect x="8" y="12" width="4" height="4" />
    <rect x="20" y="12" width="4" height="4" />
    <rect x="48" y="12" width="4" height="4" />
    <rect x="60" y="12" width="4" height="4" />
    <rect x="0" y="16" width="64" height="4" />
    <rect x="8" y="20" width="4" height="4" />
    <rect x="20" y="20" width="4" height="4" />
    <rect x="32" y="20" width="4" height="4" />
    <rect x="8" y="24" width="4" height="4" />
    <rect x="20" y="24" width="4" height="4" />
    <rect x="32" y="24" width="4" height="4" />
    <rect x="4" y="28" width="32" height="4" />
    <rect x="40" y="28" width="4" height="4" />
    <rect x="48" y="28" width="4" height="4" />
    <rect x="8" y="32" width="4" height="4" />
    <rect x="20" y="32" width="4" height="4" />
    <rect x="32" y="32" width="4" height="4" />
    <rect x="8" y="36" width="4" height="4" />
    <rect x="20" y="36" width="4" height="4" />
    <rect x="32" y="36" width="4" height="4" />
    <rect x="48" y="36" width="4" height="4" />
    <rect x="8" y="40" width="4" height="4" />
    <rect x="20" y="40" width="4" height="4" />
    <rect x="32" y="40" width="4" height="4" />
    <rect x="48" y="40" width="4" height="4" />
    <rect x="0" y="44" width="64" height="4" />
    <rect x="8" y="48" width="4" height="4" />
    <rect x="20" y="48" width="4" height="4" />
    <rect x="32" y="48" width="4" height="4" />
    <rect x="48" y="48" width="4" height="4" />
    <rect x="60" y="48" width="4" height="4" />
    <rect x="8" y="52" width="4" height="4" />
    <rect x="20" y="52" width="4" height="4" />
    <rect x="32" y="52" width="4" height="4" />
    <rect x="48" y="52" width="4" height="4" />
    <rect x="56" y="52" width="8" height="4" />
    <rect x="0" y="56" width="64" height="4" />
    <rect x="8" y="60" width="4" height="4" />
    <rect x="20" y="60" width="4" height="4" />
    <rect x="32" y="60" width="4" height="4" />
    <rect x="48" y="60" width="4" height="4" />
    <rect x="60" y="60" width="4" height="4" />
  </g>
</svg>
