<svg xmlns="http://www.w3.org/2000/svg" width="64" height="64" viewBox="0 0 64 64" shape-rendering="crispEdges">
  <g fill="#FFFFFF">
    <rect x="24" y="0" width="16" height="4" />
    <rect x="20" y="4" width="24" height="4" />
    <rect x="16" y="8" width="16" height="4" />
    <rect x="36" y="8" width="12" height="4" />
    <rect x="12" y="12" width="16" height="4" />
    <rect x="40" y="12" width="12" height="4" />
    <rect x="8" y="16" width="12" height="4" />
    <rect x="44" y="16" width="12" height="4" />
    <rect x="4" y="20" width="12" height="4" />
    <rect x="48" y="20" width="12" height="4" />
    <rect x="0" y="24" width="12" height="4" />
    <rect x="52" y="24" width="12" height="4" />
    <rect x="0" y="28" width="12" height="4" />
    <rect x="52" y="28" width="12" height="4" />
    <rect x="0" y="32" width="12" height="4" />
    <rect x="52" y="32" width="12" height="4" />
    <rect x="0" y="36" width="12" height="4" />
    <rect x="52" y="36" width="12" height="4" />
    <rect x="4" y="40" width="12" height="4" />
    <rect x="48" y="40" width="12" height="4" />
    <rect x="8" y="44" width="12" height="4" />
    <rect x="44" y="44" width="12" height="4" />
    <rect x="12" y="48" width="12" height="4" />
    <rect x="36" y="48" width="16" height="4" />
    <rect x="16" y="52" width="32" height="4" />
    <rect x="20" y="56" width="24" height="4" />
    <rect x="24" y="60" width="16" height="4" />
  </g>
</svg>
