<svg xmlns="http://www.w3.org/2000/svg" width="64" height="64" viewBox="0 0 64 64" shape-rendering="crispEdges">
  <g fill="#FFFFFF">
    <rect x="32" y="0" width="4" height="4" />
    <rect x="28" y="4" width="8" height="4" />
    <rect x="28" y="8" width="8" height="4" />
    <rect x="28" y="12" width="8" height="4" />
    <rect x="28" y="16" width="8" height="4" />
    <rect x="28" y="20" width="8" height="4" />
    <rect x="28" y="24" width="8" height="4" />
    <rect x="0" y="28" width="60" height="4" />
    <rect x="0" y="32" width="60" height="4" />
    <rect x="28" y="36" width="8" height="4" />
    <rect x="28" y="40" width="8" height="4" />
    <rect x="28" y="44" width="8" height="4" />
    <rect x="28" y="48" width="8" height="4" />
    <rect x="28" y="52" width="8" height="4" />
    <rect x="28" y="56" width="8" height="4" />
    <rect x="32" y="60" width="4" height="4" />
  </g>
</svg>
