<?xml version="1.0" encoding="UTF-8"?>
<svg xmlns="http://www.w3.org/2000/svg" width="64" height="64" viewBox="0 0 64 64" shape-rendering="geometricPrecision">
  <title>checker core</title>
  <g><rect x="2" y="2" width="6" height="6" fill="#FFFFFF" /><rect x="10" y="2" width="6" height="6" fill="#FFFFFF" /><rect x="18" y="2" width="6" height="6" fill="#FFFFFF" /><rect x="26" y="2" width="6" height="6" fill="#FFFFFF" /><rect x="34" y="2" width="6" height="6" fill="#FFFFFF" /><rect x="42" y="2" width="6" height="6" fill="#FFFFFF" /><rect x="50" y="2" width="6" height="6" fill="#FFFFFF" /><rect x="58" y="2" width="4" height="6" fill="#FFFFFF" /><rect x="2" y="10" width="6" height="6" fill="#FFFFFF" /><rect x="10" y="10" width="6" height="6" fill="#FFFFFF" /><rect x="18" y="10" width="6" height="6" fill="#FFFFFF" /><rect x="26" y="10" width="6" height="6" fill="#FFFFFF" /><rect x="34" y="10" width="6" height="6" fill="#FFFFFF" /><rect x="42" y="10" width="6" height="6" fill="#FFFFFF" /><rect x="50" y="10" width="6" height="6" fill="#FFFFFF" /><rect x="58" y="10" width="4" height="6" fill="#FFFFFF" /><rect x="2" y="18" width="6" height="6" fill="#FFFFFF" /><rect x="10" y="18" width="6" height="6" fill="#FFFFFF" /><rect x="18" y="18" width="6" height="6" fill="#FFFFFF" /><rect x="26" y="18" width="6" height="6" fill="#FFFFFF" /><rect x="34" y="18" width="6" height="6" fill="#FFFFFF" /><rect x="42" y="18" width="6" height="6" fill="#FFFFFF" /><rect x="50" y="18" width="6" height="6" fill="#FFFFFF" /><rect x="58" y="18" width="4" height="6" fill="#FFFFFF" /><rect x="2" y="26" width="6" height="6" fill="#FFFFFF" /><rect x="10" y="26" width="6" height="6" fill="#FFFFFF" /><rect x="18" y="26" width="6" height="6" fill="#FFFFFF" /><rect x="26" y="26" width="6" height="6" fill="#FFFFFF" /><rect x="34" y="26" width="6" height="6" fill="#FFFFFF" /><rect x="42" y="26" width="6" height="6" fill="#FFFFFF" /><rect x="50" y="26" width="6" height="6" fill="#FFFFFF" /><rect x="58" y="26" width="4" height="6" fill="#FFFFFF" /><rect x="2" y="34" width="6" height="6" fill="#FFFFFF" /><rect x="10" y="34" width="6" height="6" fill="#FFFFFF" /><rect x="18" y="34" width="6" height="6" fill="#FFFFFF" /><rect x="26" y="34" width="6" height="6" fill="#FFFFFF" /><rect x="34" y="34" width="6" height="6" fill="#FFFFFF" /><rect x="42" y="34" width="6" height="6" fill="#FFFFFF" /><rect x="50" y="34" width="6" height="6" fill="#FFFFFF" /><rect x="58" y="34" width="4" height="6" fill="#FFFFFF" /><rect x="2" y="42" width="6" height="6" fill="#FFFFFF" /><rect x="10" y="42" width="6" height="6" fill="#FFFFFF" /><rect x="18" y="42" width="6" height="6" fill="#FFFFFF" /><rect x="26" y="42" width="6" height="6" fill="#FFFFFF" /><rect x="34" y="42" width="6" height="6" fill="#FFFFFF" /><rect x="42" y="42" width="6" height="6" fill="#FFFFFF" /><rect x="50" y="42" width="6" height="6" fill="#FFFFFF" /><rect x="58" y="42" width="4" height="6" fill="#FFFFFF" /><rect x="2" y="50" width="6" height="6" fill="#FFFFFF" /><rect x="10" y="50" width="6" height="6" fill="#FFFFFF" /><rect x="18" y="50" width="6" height="6" fill="#FFFFFF" /><rect x="26" y="50" width="6" height="6" fill="#FFFFFF" /><rect x="34" y="50" width="6" height="6" fill="#FFFFFF" /><rect x="42" y="50" width="6" height="6" fill="#FFFFFF" /><rect x="50" y="50" width="6" height="6" fill="#FFFFFF" /><rect x="58" y="50" width="4" height="6" fill="#FFFFFF" /><rect x="2" y="58" width="6" height="4" fill="#FFFFFF" /><rect x="10" y="58" width="6" height="4" fill="#FFFFFF" /><rect x="18" y="58" width="6" height="4" fill="#FFFFFF" /><rect x="26" y="58" width="6" height="4" fill="#FFFFFF" /><rect x="34" y="58" width="6" height="4" fill="#FFFFFF" /><rect x="42" y="58" width="6" height="4" fill="#FFFFFF" /><rect x="50" y="58" width="6" height="4" fill="#FFFFFF" /><rect x="58" y="58" width="4" height="4" fill="#FFFFFF" /></g>
</svg>
