<?xml version="1.0" encoding="UTF-8"?>
<svg xmlns="http://www.w3.org/2000/svg" width="64" height="64" viewBox="0 0 64 64" shape-rendering="geometricPrecision">
  <title>diamond lattice</title>
  <g><line x1="-64" y1="54" x2="-20" y2="10" stroke="#FFFFFF" stroke-width="2" stroke-linecap="butt" /><line x1="-52" y1="54" x2="-8" y2="10" stroke="#FFFFFF" stroke-width="2" stroke-linecap="butt" /><line x1="-40" y1="54" x2="4" y2="10" stroke="#FFFFFF" stroke-width="2" stroke-linecap="butt" /><line x1="-28" y1="54" x2="16" y2="10" stroke="#FFFFFF" stroke-width="2" stroke-linecap="butt" /><line x1="-16" y1="54" x2="28" y2="10" stroke="#FFFFFF" stroke-width="2" stroke-linecap="butt" /><line x1="-4" y1="54" x2="40" y2="10" stroke="#FFFFFF" stroke-width="2" stroke-linecap="butt" /><line x1="8" y1="54" x2="52" y2="10" stroke="#FFFFFF" stroke-width="2" stroke-linecap="butt" /><line x1="20" y1="54" x2="64" y2="10" stroke="#FFFFFF" stroke-width="2" stroke-linecap="butt" /><line x1="32" y1="54" x2="76" y2="10" stroke="#FFFFFF" stroke-width="2" stroke-linecap="butt" /><line x1="44" y1="54" x2="88" y2="10" stroke="#FFFFFF" stroke-width="2" stroke-linecap="butt" /><line x1="56" y1="54" x2="100" y2="10" stroke="#FFFFFF" stroke-width="2" stroke-linecap="butt" /><line x1="68" y1="54" x2="112" y2="10" stroke="#FFFFFF" stroke-width="2" stroke-linecap="butt" /><line x1="80" y1="54" x2="124" y2="10" stroke="#FFFFFF" stroke-width="2" stroke-linecap="butt" /><line x1="92" y1="54" x2="136" y2="10" stroke="#FFFFFF" stroke-width="2" stroke-linecap="butt" /><line x1="104" y1="54" x2="148" y2="10" stroke="#FFFFFF" stroke-width="2" stroke-linecap="butt" /><line x1="116" y1="54" x2="160" y2="10" stroke="#FFFFFF" stroke-width="2" stroke-linecap="butt" /><line x1="128" y1="54" x2="172" y2="10" stroke="#FFFFFF" stroke-width="2" stroke-linecap="butt" /><line x1="-64" y1="10" x2="-108" y2="54" stroke="#FFFFFF" stroke-width="2" stroke-linecap="butt" /><line x1="-52" y1="10" x2="-96" y2="54" stroke="#FFFFFF" stroke-width="2" stroke-linecap="butt" /><line x1="-40" y1="10" x2="-84" y2="54" stroke="#FFFFFF" stroke-width="2" stroke-linecap="butt" /><line x1="-28" y1="10" x2="-72" y2="54" stroke="#FFFFFF" stroke-width="2" stroke-linecap="butt" /><line x1="-16" y1="10" x2="-60" y2="54" stroke="#FFFFFF" stroke-width="2" stroke-linecap="butt" /><line x1="-4" y1="10" x2="-48" y2="54" stroke="#FFFFFF" stroke-width="2" stroke-linecap="butt" /><line x1="8" y1="10" x2="-36" y2="54" stroke="#FFFFFF" stroke-width="2" stroke-linecap="butt" /><line x1="20" y1="10" x2="-24" y2="54" stroke="#FFFFFF" stroke-width="2" stroke-linecap="butt" /><line x1="32" y1="10" x2="-12" y2="54" stroke="#FFFFFF" stroke-width="2" stroke-linecap="butt" /><line x1="44" y1="10" x2="0" y2="54" stroke="#FFFFFF" stroke-width="2" stroke-linecap="butt" /><line x1="56" y1="10" x2="12" y2="54" stroke="#FFFFFF" stroke-width="2" stroke-linecap="butt" /><line x1="68" y1="10" x2="24" y2="54" stroke="#FFFFFF" stroke-width="2" stroke-linecap="butt" /><line x1="80" y1="10" x2="36" y2="54" stroke="#FFFFFF" stroke-width="2" stroke-linecap="butt" /><line x1="92" y1="10" x2="48" y2="54" stroke="#FFFFFF" stroke-width="2" stroke-linecap="butt" /><line x1="104" y1="10" x2="60" y2="54" stroke="#FFFFFF" stroke-width="2" stroke-linecap="butt" /><line x1="116" y1="10" x2="72" y2="54" stroke="#FFFFFF" stroke-width="2" stroke-linecap="butt" /><line x1="128" y1="10" x2="84" y2="54" stroke="#FFFFFF" stroke-width="2" stroke-linecap="butt" /></g>
</svg>
