<?xml version="1.0" encoding="UTF-8"?>
<svg xmlns="http://www.w3.org/2000/svg" width="64" height="64" viewBox="0 0 64 64" shape-rendering="geometricPrecision">
  <title>near-solid line screen</title>
  <g><rect x="0" y="0" width="64" height="7" fill="#FFFFFF" /><rect x="0" y="8" width="64" height="7" fill="#FFFFFF" /><rect x="0" y="16" width="64" height="7" fill="#FFFFFF" /><rect x="0" y="24" width="64" height="7" fill="#FFFFFF" /><rect x="0" y="32" width="64" height="7" fill="#FFFFFF" /><rect x="0" y="40" width="64" height="7" fill="#FFFFFF" /><rect x="0" y="48" width="64" height="7" fill="#FFFFFF" /><rect x="0" y="56" width="64" height="7" fill="#FFFFFF" /><rect x="0" y="0" width="3" height="64" fill="#FFFFFF" /><rect x="8" y="0" width="3" height="64" fill="#FFFFFF" /><rect x="16" y="0" width="3" height="64" fill="#FFFFFF" /><rect x="24" y="0" width="3" height="64" fill="#FFFFFF" /><rect x="32" y="0" width="3" height="64" fill="#FFFFFF" /><rect x="40" y="0" width="3" height="64" fill="#FFFFFF" /><rect x="48" y="0" width="3" height="64" fill="#FFFFFF" /><rect x="56" y="0" width="3" height="64" fill="#FFFFFF" /></g>
</svg>
