<?xml version="1.0" encoding="UTF-8"?>
<svg xmlns="http://www.w3.org/2000/svg" width="64" height="64" viewBox="0 0 64 64" shape-rendering="geometricPrecision">
  <title>full-cell diagonal hatch</title>
  <g><line x1="-64" y1="64" x2="0" y2="0" stroke="#FFFFFF" stroke-width="4.8" stroke-linecap="butt" /><line x1="-57" y1="64" x2="7" y2="0" stroke="#FFFFFF" stroke-width="4.8" stroke-linecap="butt" /><line x1="-50" y1="64" x2="14" y2="0" stroke="#FFFFFF" stroke-width="4.8" stroke-linecap="butt" /><line x1="-43" y1="64" x2="21" y2="0" stroke="#FFFFFF" stroke-width="4.8" stroke-linecap="butt" /><line x1="-36" y1="64" x2="28" y2="0" stroke="#FFFFFF" stroke-width="4.8" stroke-linecap="butt" /><line x1="-29" y1="64" x2="35" y2="0" stroke="#FFFFFF" stroke-width="4.8" stroke-linecap="butt" /><line x1="-22" y1="64" x2="42" y2="0" stroke="#FFFFFF" stroke-width="4.8" stroke-linecap="butt" /><line x1="-15" y1="64" x2="49" y2="0" stroke="#FFFFFF" stroke-width="4.8" stroke-linecap="butt" /><line x1="-8" y1="64" x2="56" y2="0" stroke="#FFFFFF" stroke-width="4.8" stroke-linecap="butt" /><line x1="-1" y1="64" x2="63" y2="0" stroke="#FFFFFF" stroke-width="4.8" stroke-linecap="butt" /><line x1="6" y1="64" x2="70" y2="0" stroke="#FFFFFF" stroke-width="4.8" stroke-linecap="butt" /><line x1="13" y1="64" x2="77" y2="0" stroke="#FFFFFF" stroke-width="4.8" stroke-linecap="butt" /><line x1="20" y1="64" x2="84" y2="0" stroke="#FFFFFF" stroke-width="4.8" stroke-linecap="butt" /><line x1="27" y1="64" x2="91" y2="0" stroke="#FFFFFF" stroke-width="4.8" stroke-linecap="butt" /><line x1="34" y1="64" x2="98" y2="0" stroke="#FFFFFF" stroke-width="4.8" stroke-linecap="butt" /><line x1="41" y1="64" x2="105" y2="0" stroke="#FFFFFF" stroke-width="4.8" stroke-linecap="butt" /><line x1="48" y1="64" x2="112" y2="0" stroke="#FFFFFF" stroke-width="4.8" stroke-linecap="butt" /><line x1="55" y1="64" x2="119" y2="0" stroke="#FFFFFF" stroke-width="4.8" stroke-linecap="butt" /><line x1="62" y1="64" x2="126" y2="0" stroke="#FFFFFF" stroke-width="4.8" stroke-linecap="butt" /><line x1="69" y1="64" x2="133" y2="0" stroke="#FFFFFF" stroke-width="4.8" stroke-linecap="butt" /><line x1="76" y1="64" x2="140" y2="0" stroke="#FFFFFF" stroke-width="4.8" stroke-linecap="butt" /><line x1="83" y1="64" x2="147" y2="0" stroke="#FFFFFF" stroke-width="4.8" stroke-linecap="butt" /><line x1="90" y1="64" x2="154" y2="0" stroke="#FFFFFF" stroke-width="4.8" stroke-linecap="butt" /><line x1="97" y1="64" x2="161" y2="0" stroke="#FFFFFF" stroke-width="4.8" stroke-linecap="butt" /><line x1="104" y1="64" x2="168" y2="0" stroke="#FFFFFF" stroke-width="4.8" stroke-linecap="butt" /><line x1="111" y1="64" x2="175" y2="0" stroke="#FFFFFF" stroke-width="4.8" stroke-linecap="butt" /><line x1="118" y1="64" x2="182" y2="0" stroke="#FFFFFF" stroke-width="4.8" stroke-linecap="butt" /><line x1="125" y1="64" x2="189" y2="0" stroke="#FFFFFF" stroke-width="4.8" stroke-linecap="butt" /></g>
</svg>
