<?xml version="1.0" encoding="UTF-8"?>
<svg xmlns="http://www.w3.org/2000/svg" width="64" height="64" viewBox="0 0 64 64" shape-rendering="geometricPrecision">
  <title>full-cell grid tone</title>
  <g><line x1="0" y1="0" x2="0" y2="64" stroke="#FFFFFF" stroke-width="4" stroke-linecap="butt" /><line x1="0" y1="0" x2="64" y2="0" stroke="#FFFFFF" stroke-width="4" stroke-linecap="butt" /><line x1="8" y1="0" x2="8" y2="64" stroke="#FFFFFF" stroke-width="4" stroke-linecap="butt" /><line x1="0" y1="8" x2="64" y2="8" stroke="#FFFFFF" stroke-width="4" stroke-linecap="butt" /><line x1="16" y1="0" x2="16" y2="64" stroke="#FFFFFF" stroke-width="4" stroke-linecap="butt" /><line x1="0" y1="16" x2="64" y2="16" stroke="#FFFFFF" stroke-width="4" stroke-linecap="butt" /><line x1="24" y1="0" x2="24" y2="64" stroke="#FFFFFF" stroke-width="4" stroke-linecap="butt" /><line x1="0" y1="24" x2="64" y2="24" stroke="#FFFFFF" stroke-width="4" stroke-linecap="butt" /><line x1="32" y1="0" x2="32" y2="64" stroke="#FFFFFF" stroke-width="4" stroke-linecap="butt" /><line x1="0" y1="32" x2="64" y2="32" stroke="#FFFFFF" stroke-width="4" stroke-linecap="butt" /><line x1="40" y1="0" x2="40" y2="64" stroke="#FFFFFF" stroke-width="4" stroke-linecap="butt" /><line x1="0" y1="40" x2="64" y2="40" stroke="#FFFFFF" stroke-width="4" stroke-linecap="butt" /><line x1="48" y1="0" x2="48" y2="64" stroke="#FFFFFF" stroke-width="4" stroke-linecap="butt" /><line x1="0" y1="48" x2="64" y2="48" stroke="#FFFFFF" stroke-width="4" stroke-linecap="butt" /><line x1="56" y1="0" x2="56" y2="64" stroke="#FFFFFF" stroke-width="4" stroke-linecap="butt" /><line x1="0" y1="56" x2="64" y2="56" stroke="#FFFFFF" stroke-width="4" stroke-linecap="butt" /><line x1="64" y1="0" x2="64" y2="64" stroke="#FFFFFF" stroke-width="4" stroke-linecap="butt" /><line x1="0" y1="64" x2="64" y2="64" stroke="#FFFFFF" stroke-width="4" stroke-linecap="butt" /></g>
</svg>
